<?xml version="1.0" encoding="utf-8"?>
<!-- Generator: Adobe Illustrator 27.5.0, SVG Export Plug-In . SVG Version: 6.00 Build 0)  -->
<svg version="1.1" xmlns="http://www.w3.org/2000/svg" xmlns:xlink="http://www.w3.org/1999/xlink" x="0px" y="0px"
	 viewBox="0 0 750 500" style="enable-background:new 0 0 750 500;" xml:space="preserve">
<g id="BACKGROUND">
	<rect style="fill:#FFFFFF;" width="750" height="500"/>
</g>
<g id="OBJECTS">
	<g>
		<path style="fill:#F8A3A8;" d="M621.108,131.214c-4.038,1.388-8.172,2.791-12.442,2.763c-4.27-0.029-8.776-1.761-11.015-5.397
			c-1.581-2.568-1.846-5.838-0.979-8.727c0.867-2.889,2.795-5.397,5.187-7.234c2.154-1.655,4.748-2.812,7.461-2.961
			c3.329-0.182,6.551,1.139,9.518,2.659c2.598,1.331,5.126,2.849,7.275,4.824c1.227,1.127,2.36,2.471,2.722,4.096
			c0.477,2.145-0.507,4.404-2.014,6.002C625.312,128.838,623.554,130.373,621.108,131.214z"/>
		<path style="fill:#F8A3A8;" d="M659.635,220.538c4.146-1.103,8.058-3.075,11.41-5.753c1.837-1.467,3.592-3.298,4.015-5.61
			c0.233-1.273,0.034-2.603-0.44-3.807c-1.278-3.243-4.458-5.451-7.825-6.351c-3.824-1.022-8.029-0.544-11.526,1.311
			c-3.497,1.855-6.251,5.068-7.549,8.807c-0.592,1.706-0.889,3.564-0.486,5.324c0.602,2.629,2.745,4.739,5.249,5.741
			C654.985,221.202,657.748,221.04,659.635,220.538z"/>
		<path style="fill:#F8A3A8;" d="M696.782,411.836c-1.745,2.784-4.908,4.47-8.151,4.995c-3.243,0.525-6.572,0.006-9.744-0.848
			c-3.8-1.023-7.603-2.617-10.242-5.536c-2.639-2.92-3.828-7.417-2.01-10.907c0.99-1.899,2.729-3.303,4.574-4.392
			c6.799-4.012,15.701-4.184,22.65-0.439c3.219,1.735,6.191,4.571,6.645,8.2C700.965,406.59,698.186,409.596,696.782,411.836z"/>
		<path style="fill:#F8A3A8;" d="M715.234,401.882c-2.096-0.538-4.169-1.489-5.546-3.158c-1.378-1.668-1.898-4.163-0.833-6.046
			c1.191-2.106,3.995-2.854,6.361-2.35c1.976,0.421,3.815,1.611,4.843,3.351s1.163,4.022,0.179,5.787
			C719.254,401.23,717.112,402.363,715.234,401.882z"/>
		<path style="fill:#F8A3A8;" d="M703.416,389.627c-3.031,1.042-6.613,0.262-8.936-1.947c-0.938-0.892-1.691-2.032-1.893-3.311
			c-0.311-1.97,0.798-4.012,2.49-5.069c1.691-1.056,3.854-1.199,5.773-0.657c2.445,0.69,4.63,2.586,5.219,5.057
			C706.658,386.172,705.292,388.982,703.416,389.627z"/>
		<path style="fill:#F8A3A8;" d="M353.077,422.645c-33.211,14.079-68.963,22.136-105.003,23.663
			c-26.493,1.122-56.219-2.794-72.998-23.327c-9.751-11.933-14.485-28.784-28.046-36.106c-13.68-7.386-30.562-1.94-45.975-3.972
			c-16.031-2.113-30.593-13.135-36.981-27.99c-6.388-14.855-4.371-33.005,5.122-46.095c22.227-30.648,76.097-29.26,90.731-64.177
			c6.437-15.359,2.629-32.973,5.273-49.415c3.422-21.278,17.844-39.744,35.885-51.533c18.041-11.789,39.428-17.523,60.791-20.364
			c28.179-3.748,59.901-1.582,80.306,18.21c12.596,12.217,19.614,30.056,34.425,39.465c7.393,4.697,16.08,6.83,24.14,10.261
			c30.382,12.934,50.375,44.917,53.302,77.808c2.927,32.891-9.615,65.961-29.925,91.997
			C403.815,387.105,378.975,411.665,353.077,422.645z"/>
		<path style="fill:#FBB4B8;" d="M582.747,440.47c-38.252,13.768-79.828,18.198-120.122,12.801
			c-25.017-3.351-49.607-10.424-74.84-11.045c-20.979-0.516-43.089,3.259-62.163-5.492c-22.443-10.297-34.402-35.485-38.427-59.847
			c-3.775-22.852-1.908-47.33,9.511-67.482c23.76-41.931,80.462-54.075,109.225-92.746c8.481-11.402,14.14-24.648,22.003-36.485
			c26.567-39.992,79.771-60.149,126.167-47.801c20.94,5.573,41.349,18.449,49.378,38.575c10.316,25.856-2.023,56.306,7.161,82.586
			c6.4,18.314,22.17,31.554,32.576,47.927c16.678,26.241,18.438,61.302,4.472,89.082
			C633.723,418.323,603.396,433.038,582.747,440.47z"/>
		<path style="fill:#F8A3A8;" d="M144.982,228.01c-8.693-10.18-17.368-21.838-17.424-35.225c-0.041-9.995,4.764-19.259,8.594-28.491
			c1.581-3.811,2.843-8.67,0.013-11.671c-2.097-2.224-5.782-2.326-8.49-0.907c-2.708,1.419-4.586,4.033-6.012,6.736
			c-3.832,7.262-5.068,15.662-4.904,23.872c0.434,21.778,10.796,43.163,27.617,57.002c2.367,0.101,4.329-2.657,4.085-5.068
			C148.217,231.847,146.555,229.853,144.982,228.01z M144.172,160.673c0.238,0.845,0.597,1.755,1.381,2.15
			c0.778,0.392,1.728,0.142,2.501-0.26c2.865-1.491,4.41-5.132,3.491-8.228c-0.278-0.936-0.752-1.818-0.898-2.784
			c-0.316-2.089,0.927-4.048,1.687-6.02c0.76-1.972,0.794-4.689-1.069-5.686c-1.771-0.949-3.919,0.381-5.23,1.904
			c-3.473,4.033-4.615,9.943-2.895,14.98C143.443,157.616,143.746,159.16,144.172,160.673z M154.103,211.011
			c-1.196-1.771-2.693-3.694-4.821-3.881c-1.793-0.158-3.505,1.074-4.328,2.674c-0.824,1.6-0.894,3.489-0.667,5.274
			c0.271,2.134,0.969,4.264,2.338,5.923c1.369,1.659,3.477,2.788,5.623,2.645c2.956-0.197,4.824-3.225,4.761-5.751
			C156.946,215.37,155.518,213.105,154.103,211.011z"/>
		<path style="fill:#F8A3A8;" d="M680.692,311.346c-2.561-3.18-3.25-7.437-4.995-11.128c-1.746-3.691-5.581-7.155-9.496-5.994
			c-2.368,0.702-3.982,2.916-4.932,5.196c-2.11,5.062-1.691,11.107,1.095,15.83c3.523,5.971,10.3,9.523,13.613,15.614
			c2.669,4.908,2.714,10.904,1.315,16.313c-1.398,5.409-4.12,10.367-6.814,15.261c-0.578-0.096-0.626,2.383,0.566,4.095
			c1.193,1.713,3.534,2.528,5.532,1.925c1.603-0.483,2.849-1.727,3.96-2.978c5.774-6.499,9.877-14.471,11.811-22.947
			c2.026-8.881,1.248-19.265-5.334-25.563C684.973,315.016,682.464,313.546,680.692,311.346z M673.325,288.452
			c1.594,0.956,3.369,1.585,4.943,2.572c2.945,1.846,5.063,4.96,5.7,8.376c-0.479,0.962,0.272,2.186,1.324,2.516
			c1.052,0.329,2.241-0.116,3.002-0.913c0.761-0.797,1.146-1.888,1.315-2.977c0.488-3.152-0.702-6.382-2.581-8.958
			c-1.879-2.577-4.403-4.602-6.924-6.554c-1.06-0.821-2.157-1.651-3.442-2.03c-1.475-0.435-3.077-0.23-4.534,0.261
			c-0.69,0.233-1.39,0.551-1.832,1.13c-0.508,0.666-0.59,1.58-0.419,2.4C670.26,286.093,671.732,287.496,673.325,288.452z
			 M696.217,310.402c-0.137-1.68-1.189-3.257-2.687-4.029c-1.498-0.772-3.393-0.714-4.841,0.148
			c-0.708,0.422-1.32,1.038-1.627,1.803c-0.522,1.3-0.066,2.857,0.892,3.878c0.958,1.022,2.336,1.565,3.72,1.784
			c1.412,0.223,2.729,0.043,3.608-0.773C696.03,312.517,696.3,311.421,696.217,310.402z"/>
		<path style="fill:#FADBD6;" d="M454.331,137.271c-15.096,8.791-41.319,5.006-57.241,0.527
			c-11.491-3.233-22.641-9.039-33.752-13.396c-22.092-8.662-45.065-16.46-69.068-16.463c-15.953-0.002-31.737,3.437-47.687,3.769
			c-6.533,0.136-13.626-0.464-18.53-4.782c-6.729-5.926-6.56-17.114-1.615-24.594c4.944-7.48,13.419-11.854,21.909-14.735
			c31.261-10.61,66.218-4.784,96.307,8.796c28.494,12.86,55.933,32.906,87.166,31.58c5.519-0.234,11.045-1.153,16.539-0.581
			c5.494,0.571,11.176,2.955,13.982,7.713C466.78,122.632,461.883,132.873,454.331,137.271z"/>
		<path style="fill:#F8A3A8;" d="M462.781,90.456c-19.041-3.767-40.389,10.03-57.207,0.341c-1.12-0.646-2.243-1.452-2.737-2.647
			c-0.729-1.763,0.137-3.789,1.293-5.307c3.527-4.635,9.596-6.735,15.418-6.924c5.822-0.189,11.553,1.265,17.247,2.491
			c10.249,2.207,20.92,3.697,31.178,1.528c5.924-1.253,11.524-3.69,17.322-5.436c18.33-5.52,38.135-3.966,56.759,0.46
			c13.202,3.137,26.485,7.934,36.35,17.251c3.313,3.129,6.29,6.954,6.983,11.459c1.059,6.884-3.687,13.668-9.841,16.929
			c-6.154,3.261-13.404,3.663-20.365,3.42c-15.256-0.532-32.878-3.237-47.218-8.894C492.061,108.853,479.767,93.816,462.781,90.456z
			"/>
	</g>
	<g>
		<path d="M639.214,206.558c-0.028,0-0.055-0.004-0.084-0.013c-0.146-0.046-0.227-0.202-0.181-0.348
			c1.022-3.252,1.32-6.264,0.885-8.952c-0.432-2.667-1.63-5.053-3.352-6.735c-0.053,0.131-0.11,0.26-0.171,0.386
			c-0.79,1.621-2.424,2.655-3.966,2.522c-0.896-0.078-1.77-0.635-2.283-1.452c-0.444-0.708-0.547-1.513-0.283-2.208
			c0.28-0.738,0.855-1.254,1.663-1.492c1.295-0.382,3.085,0.001,4.352,0.932c0.143,0.105,0.283,0.214,0.42,0.326
			c0.221-0.918,0.257-1.991,0.113-3.288c-0.374-3.391-2.125-7.288-5.184-9.163c-0.044,0.383-0.125,0.75-0.241,1.1
			c-0.582,1.748-2.186,3.015-3.803,2.973c-0.916-0.014-1.847-0.519-2.43-1.317c-0.512-0.702-0.677-1.528-0.453-2.268
			c0.534-1.763,2.809-2.391,4.698-1.98c0.604,0.132,1.175,0.329,1.712,0.583c-0.029-1.005-0.293-1.958-0.568-2.692
			c-1.933-5.155-7.714-8.553-13.156-7.74c-0.148,0.023-0.293-0.081-0.316-0.234c-0.023-0.152,0.082-0.293,0.233-0.316
			c5.697-0.851,11.738,2.703,13.759,8.095c0.418,1.116,0.621,2.189,0.605,3.176c3.373,1.917,5.297,6.098,5.696,9.722
			c0.164,1.493,0.102,2.714-0.199,3.757c1.908,1.772,3.237,4.344,3.702,7.224c0.449,2.775,0.145,5.872-0.903,9.208
			C639.442,206.482,639.333,206.558,639.214,206.558z M632.523,188.675c-0.329,0-0.643,0.04-0.924,0.123
			c-0.644,0.19-1.082,0.579-1.301,1.156c-0.205,0.539-0.122,1.149,0.234,1.716c0.422,0.673,1.135,1.13,1.861,1.194
			c1.31,0.112,2.728-0.793,3.418-2.212c0.086-0.176,0.162-0.358,0.229-0.547c-0.187-0.161-0.379-0.315-0.576-0.46
			C634.627,189.029,633.505,188.675,632.523,188.675z M627.754,176.012c-1.347,0-2.656,0.553-3.006,1.709
			c-0.173,0.571-0.039,1.219,0.37,1.779c0.481,0.66,1.244,1.077,1.989,1.089c0.015,0,0.029,0,0.043,0
			c1.549,0,2.792-1.298,3.224-2.593c0.135-0.403,0.209-0.813,0.239-1.221c-0.565-0.289-1.171-0.511-1.818-0.652
			C628.457,176.049,628.104,176.012,627.754,176.012z"/>
		<path d="M366.844,149.734c-1.949,0-3.667-0.71-4.721-1.955c-0.772-0.911-1.235-2.143-1.376-3.663
			c-0.181-1.953,0.254-3.712,1.226-4.954c0.901-1.152,2.317-1.969,4.209-2.43c1.947-0.474,3.621-0.383,4.974,0.271
			c1.833,0.885,3.104,2.92,3.24,5.184c0.141,2.345-0.686,4.469-2.211,5.682c-1.493,1.187-3.365,1.849-5.273,1.865
			C366.889,149.734,366.866,149.734,366.844,149.734z M368.484,136.989c-0.673,0-1.398,0.094-2.172,0.283
			c-1.767,0.43-3.08,1.182-3.902,2.233c-0.884,1.129-1.278,2.749-1.11,4.56c0.13,1.404,0.549,2.533,1.246,3.356
			c0.945,1.116,2.589,1.772,4.361,1.758c1.784-0.015,3.535-0.634,4.931-1.745c1.384-1.1,2.132-3.049,2.002-5.214
			c-0.124-2.066-1.273-3.917-2.927-4.716C370.205,137.161,369.392,136.989,368.484,136.989z M372.011,147.651h0.006H372.011z"/>
		<g>
			<path style="fill:#FCAB00;" d="M138.505,244.131c-1.006-1.602-2.505-2.891-4.239-3.646c-1.776-0.773-4.123-0.862-5.39,0.604
				c-0.516,0.597-0.779,1.373-0.933,2.148c-0.541,2.726,0.245,5.764,2.301,7.634c2.055,1.87,5.389,2.317,7.697,0.769
				c1.082-0.726,1.671-2.19,1.726-3.576C139.723,246.676,139.243,245.306,138.505,244.131z M160.808,251.961
				c-1.258-1.889-4.028-2.389-6.081-1.424c-2.053,0.965-3.382,3.105-3.821,5.331c-0.271,1.377-0.236,2.842,0.292,4.142
				c0.529,1.301,1.589,2.417,2.929,2.834c2.012,0.242,4.6-0.815,5.972-2.796c0.665-0.96,1.05-2.09,1.286-3.234
				C161.723,255.176,161.736,253.354,160.808,251.961z M138.663,280.845c-1.694-0.334-3.488-0.139-5.072,0.551
				c-1.254,0.546-2.429,1.474-2.86,2.773c-0.405,1.22-0.074,2.613,0.696,3.641c0.77,1.028,1.934,1.715,3.164,2.085
				c2.743,0.824,5.902,0.068,7.975-1.908c0.87-0.83,1.077-2.914,0.244-4.407C141.978,282.087,140.34,281.175,138.663,280.845z
				 M181.582,283.155c0.039-1.832-0.934-3.683-2.531-4.584c-1.748-0.986-4.062-0.731-5.678,0.46
				c-1.616,1.191-2.534,3.204-2.584,5.211c-0.027,1.099,0.197,2.228,0.8,3.148c0.603,0.919,1.617,1.601,2.716,1.647
				c1.373,0.057,3.27-0.138,4.754-1.214C180.542,286.746,181.543,284.987,181.582,283.155z"/>
			<path d="M179.866,345.634c-2.833-14.312-7.014-28.313-12.443-41.803c0.802-4.027,2.726-7.786,4.591-11.421
				c0.497-0.97,0.994-1.939,1.471-2.913c0.683-1.395,1.338-2.831,1.971-4.22c1.008-2.21,2.05-4.494,3.227-6.66
				c0.073-0.135,0.023-0.304-0.111-0.377c-0.134-0.072-0.303-0.023-0.377,0.111c-1.186,2.183-2.232,4.477-3.244,6.695
				c-0.632,1.385-1.285,2.818-1.965,4.206c-0.475,0.971-0.97,1.936-1.466,2.903c-1.761,3.433-3.566,6.978-4.461,10.781
				c-2.091-5.135-4.364-10.195-6.812-15.169c-0.008-0.058-0.036-0.11-0.075-0.153c-2.357-4.78-4.876-9.48-7.553-14.09
				c0.937-7.951,2.881-15.766,5.781-23.228c0.056-0.143-0.015-0.304-0.158-0.36c-0.142-0.058-0.304,0.015-0.359,0.158
				c-2.83,7.283-4.747,14.901-5.72,22.653c-6.532-11.148-13.983-21.768-22.297-31.711c-0.099-0.118-0.274-0.134-0.391-0.035
				c-0.118,0.098-0.133,0.274-0.035,0.391c11.802,14.114,21.87,29.589,30.014,46.014c-9.479-2.053-19.191-2.899-28.882-2.497
				c-0.154,0.006-0.273,0.136-0.266,0.289c0.005,0.126,0.094,0.229,0.21,0.258c0.025,0.006,0.052,0.009,0.079,0.008
				c9.788-0.405,19.6,0.461,29.166,2.572c2.557,5.197,4.926,10.486,7.092,15.858c0.001,0.071,0.026,0.135,0.073,0.185
				c5.407,13.445,9.573,27.399,12.396,41.662c0.022,0.109,0.104,0.19,0.205,0.215c0.038,0.01,0.08,0.011,0.121,0.003
				C179.798,345.931,179.896,345.784,179.866,345.634z"/>
		</g>
		<g>
			<path style="fill:#ED6C71;" d="M103.705,295.912c-5.515-6.815-16.625-5.419-25.098-4.328c-4.602,0.592-9.355,2.109-12.4,5.61
				c-1.285,1.478-2.234,3.361-2.15,5.318c0.109,2.558,2.001,4.793,4.3,5.919c2.299,1.126,4.945,1.311,7.504,1.215
				c3.657-0.137,7.336-0.823,10.628-2.422c4.313-2.095,7.767-5.646,12.002-7.895c-2.027,3.199-3.637,6.695-4.414,10.401
				c-0.777,3.706-0.693,7.634,0.568,11.205c0.394,1.115,0.913,2.212,1.732,3.065c0.819,0.853,1.976,1.44,3.155,1.357
				c1.571-0.11,2.839-1.342,3.684-2.672c1.072-1.687,1.695-3.62,2.162-5.563c1.091-4.535,1.384-9.262,0.863-13.897
				C105.947,300.625,105.35,297.945,103.705,295.912z M116.886,265.878c-0.45-1.376-1.272-2.821-2.673-3.19
				c-1.119-0.295-2.298,0.192-3.271,0.818c-2.459,1.583-4.211,4.062-5.555,6.659c-3.232,6.245-4.403,13.536-3.289,20.479
				c0.163,1.017,0.377,2.037,1.176,3c2.527-0.486,4.787-1.967,6.555-3.836c1.769-1.869,3.087-4.116,4.248-6.413
				c1.369-2.71,2.548-5.541,3.149-8.517C117.828,271.902,117.831,268.763,116.886,265.878z M74.993,276.312
				c0.07,0.052,0.136,0.108,0.208,0.158l-0.159,0.202c3.739-3.181,5.879-7.832,7.535-12.454c3.018-8.42,4.82-17.505,3.356-26.329
				c-0.348-2.1-0.897-4.211-2.054-5.998c-1.157-1.787-3.004-3.221-5.119-3.46c-1.887-0.213-3.796,0.545-5.261,1.753
				c-1.465,1.208-2.532,2.833-3.398,4.523c-2.323,4.535-3.326,9.671-3.392,14.766c-0.066,5.095,0.776,10.165,1.982,15.115
				c0.298,1.221,0.637,2.46,1.047,3.672c-3.933-3.633-8.73-6.311-13.778-8.139c-5.744-2.08-11.933-3.116-18.002-2.416
				c-4.107,0.473-8.554,2.096-10.346,5.821c-0.987,2.053-0.997,4.496-0.295,6.663c0.703,2.167,2.073,4.073,3.706,5.661
				c3.79,3.684,8.918,5.694,14.076,6.846c5.171,1.154,10.561,1.533,15.783,0.636c5.222-0.898,10.276-3.118,14.167-6.715
				C75.035,276.51,75.01,276.414,74.993,276.312z"/>
			<path d="M179.971,400.183c-17.087-33.386-40.953-74.584-76.712-104.929c0.914-9.328,3.839-18.562,8.467-26.711
				c0.076-0.134,0.029-0.303-0.104-0.379c-0.134-0.077-0.303-0.029-0.379,0.104c-4.604,8.107-7.533,17.279-8.495,26.556
				c-3.169-2.672-6.422-5.267-9.78-7.755c-6.557-4.857-12.196-8.335-17.621-10.839c-1.421-4.681-1.566-9.789-1.336-16.006
				c0.22-5.933,0.696-11.932,1.415-17.83c0.334-2.731,0.716-5.388,1.724-7.864c0.058-0.142-0.01-0.304-0.152-0.362
				c-0.141-0.059-0.304,0.01-0.362,0.152c-1.034,2.539-1.423,5.236-1.761,8.006c-0.722,5.913-1.199,11.928-1.419,17.876
				c-0.195,5.265-0.172,10.796,1.222,15.724c-1.686-0.755-3.354-1.422-5.026-2.002c-5.905-2.051-12.175-3.137-18.238-4.187
				c-6.292-1.09-12.798-2.216-18.874-4.423c-0.144-0.053-0.303,0.022-0.356,0.166c-0.052,0.144,0.022,0.304,0.166,0.356
				c6.122,2.224,12.653,3.355,18.969,4.448c6.041,1.046,12.288,2.128,18.151,4.165c1.813,0.63,3.622,1.357,5.456,2.196
				c0.052,0.058,0.118,0.101,0.198,0.101c0.004,0,0.009-0.002,0.013-0.002c5.383,2.486,10.983,5.943,17.5,10.769
				c3.258,2.413,6.415,4.929,9.494,7.516c-4.249,0.887-8.057,2.195-11.74,3.464l-1.257,0.433c-6.55,2.245-13.537,4.418-20.599,4.109
				c-0.145-0.002-0.283,0.113-0.29,0.266c-0.006,0.154,0.112,0.283,0.266,0.29c7.16,0.307,14.202-1.876,20.803-4.139l1.259-0.432
				c3.676-1.268,7.475-2.577,11.704-3.457c-0.911,8.034-2.244,16.108-3.964,24.004c-0.033,0.15,0.062,0.298,0.212,0.331
				c0.02,0.004,0.04,0.007,0.059,0.007c0.128,0,0.243-0.088,0.271-0.219c1.725-7.918,3.059-16.014,3.972-24.07
				c35.725,30.288,59.576,71.458,76.65,104.819c0.049,0.096,0.147,0.151,0.248,0.151c0.043,0,0.086-0.01,0.126-0.03
				C179.987,400.487,180.041,400.319,179.971,400.183z"/>
		</g>
		<path d="M493.348,100.969c-1.061-0.672-2.465-0.962-4.068-0.838c-3.111,0.24-5.869,1.982-7.027,4.438
			c-1.319,2.797-0.247,6.375,2.294,7.655c0.791,0.399,1.689,0.598,2.713,0.598c0.819,0,1.719-0.128,2.707-0.382
			c2.37-0.61,4.463-2.444,5.331-4.671C496.275,105.267,495.418,102.28,493.348,100.969z M483.257,110.389
			c-1.098-1.514-1.374-3.732-0.501-5.583c1.074-2.279,3.652-3.897,6.567-4.121c0.227-0.017,0.449-0.026,0.666-0.026
			c1.202,0,2.251,0.266,3.063,0.78c0.286,0.181,0.543,0.402,0.775,0.649C490.138,104.613,486.585,107.404,483.257,110.389z
			 M494.781,107.566c-0.794,2.035-2.784,3.777-4.952,4.335c-2.088,0.538-3.733,0.481-5.032-0.173
			c-0.451-0.228-0.848-0.539-1.19-0.908c3.329-2.987,6.884-5.78,10.575-8.305C495.171,103.876,495.452,105.845,494.781,107.566z"/>
		<path d="M176.356,147.156c-0.027,0-0.055-0.004-0.081-0.012c-4.675-1.424-9.096-3.455-13.371-5.42
			c-0.073-0.033-0.128-0.097-0.15-0.174c-0.023-0.077-0.011-0.16,0.032-0.228c4.449-6.988,9.704-13.472,15.62-19.271
			c0.081-0.08,0.201-0.102,0.306-0.056c0.104,0.046,0.17,0.15,0.166,0.263c-0.265,8.225-1.021,16.522-2.247,24.661
			c-0.012,0.08-0.058,0.15-0.127,0.193C176.459,147.142,176.408,147.156,176.356,147.156z M163.426,141.353
			c4.074,1.872,8.281,3.79,12.703,5.165c1.16-7.785,1.89-15.713,2.17-23.58C172.691,128.507,167.691,134.699,163.426,141.353z"/>
		<path d="M709.914,367.479c-0.042,0-0.083-0.009-0.122-0.028c-0.072-0.035-0.126-0.099-0.146-0.177
			c-2.164-7.995-3.411-16.247-3.709-24.528c-0.004-0.113,0.061-0.218,0.165-0.264c0.105-0.046,0.226-0.024,0.307,0.055
			c5.901,5.744,11.521,11.895,16.703,18.281c0.05,0.063,0.072,0.145,0.057,0.224c-0.014,0.08-0.062,0.149-0.132,0.19
			c-4.201,2.493-8.682,4.39-13.015,6.225C709.988,367.472,709.951,367.479,709.914,367.479z M706.52,343.422
			c0.334,7.898,1.537,15.765,3.58,23.399c4.129-1.749,8.382-3.564,12.377-5.903C717.512,354.818,712.147,348.936,706.52,343.422z"/>
		<path d="M216.08,125.401c-0.226,0-0.446-0.044-0.652-0.132c-1.177-0.507-1.395-2.131-0.923-3.346
			c0.196-0.504,0.477-0.977,0.827-1.405c-0.712-0.237-1.524-0.301-2.346-0.167c-1.204,0.198-2.445,0.779-3.905,1.829
			c-0.902,0.649-1.986,1.549-2.368,2.762c-0.046,0.147-0.203,0.227-0.348,0.182c-0.146-0.046-0.228-0.202-0.182-0.348
			c0.431-1.37,1.602-2.348,2.574-3.046c0.964-0.693,2.442-1.647,4.139-1.926c0.998-0.164,1.988-0.061,2.839,0.271
			c0.802-0.795,1.859-1.387,3.037-1.663c2.164-0.508,4.198,0.067,5.524,0.638c1.11,0.478,3.032,1.573,3.439,3.54
			c0.031,0.15-0.066,0.297-0.216,0.328c-0.15,0.029-0.298-0.066-0.328-0.216c-0.356-1.72-2.104-2.707-3.115-3.142
			c-1.25-0.539-3.162-1.081-5.178-0.607c-1.006,0.236-1.914,0.722-2.624,1.373c0.376,0.206,0.713,0.464,0.997,0.767
			c0.769,0.823,1.068,1.949,0.762,2.869c-0.182,0.546-0.619,1.019-1.169,1.265C216.606,125.343,216.339,125.401,216.08,125.401z
			 M215.871,120.74c-0.364,0.416-0.653,0.883-0.848,1.384c-0.379,0.975-0.248,2.259,0.625,2.634c0.297,0.128,0.65,0.115,0.99-0.039
			c0.41-0.184,0.735-0.533,0.869-0.934c0.243-0.729-0.009-1.637-0.641-2.314C216.589,121.175,216.252,120.929,215.871,120.74z"/>
		<g>
			<path style="fill:#ED6C71;" d="M648.413,241.742c1.342-5.602,1.719-11.982-1.644-16.659c-1.022-1.421-2.546-2.691-4.296-2.636
				c-1.212,0.038-2.314,0.709-3.257,1.471c-4.865,3.935-6.818,10.461-7.471,16.684c-0.913,8.704,0.229,17.616,3.307,25.808
				C641.725,259.672,646.199,250.982,648.413,241.742z M626.962,281.21c-1.989,3.835-3.251,8.132-3.019,12.445
				c0.093,1.725,0.624,3.705,2.213,4.384c2.004,0.856,4.124-0.923,5.407-2.685c5.189-7.122,6.836-16.701,4.323-25.147
				c-0.505,0.047-0.985,0.316-1.438,0.458C631.647,273.956,628.951,277.376,626.962,281.21z M644.073,268.634
				c-2.196-0.324-4.541-0.454-6.353,0.599c2.585,7.514,7.253,14.3,13.345,19.401c2.627,2.2,5.705,4.158,9.128,4.309
				c3.424,0.151,7.139-2.099,7.562-5.499c0.245-1.969-0.607-3.91-1.651-5.597C661.452,274.329,652.819,269.924,644.073,268.634z
				 M621.481,267.708c3.998,0.584,8.062,0.453,12.1,0.321c0.341-1.168-0.424-2.532-1.213-3.593
				c-4.139-5.568-9.81-9.985-16.222-12.634c-2.301-0.951-5.027-1.65-7.191-0.421c-2.045,1.161-2.912,3.824-2.448,6.129
				s2.029,4.258,3.859,5.734C613.513,265.779,617.483,267.124,621.481,267.708z M674.465,240.76c-2.893-0.6-5.895,0.098-8.694,1.042
				c-12.331,4.158-22.884,13.345-28.702,24.986c14.274,1.474,29.345-2.421,39.568-12.388c2.179-2.124,4.241-4.892,3.841-7.908
				C680.09,243.564,677.358,241.36,674.465,240.76z"/>
			<path d="M637.852,269.044c-0.123-0.093-0.296-0.067-0.389,0.054c-0.093,0.122-0.068,0.297,0.054,0.389l23.141,17.497
				c0.088,0.066,0.202,0.072,0.293,0.026c0.037-0.019,0.069-0.046,0.096-0.08c0.093-0.122,0.068-0.297-0.054-0.389L637.852,269.044z
				 M635.066,269.733c-1.212,7.59-3.138,15.113-5.724,22.357c-0.052,0.145,0.023,0.303,0.168,0.355
				c0.075,0.027,0.153,0.02,0.219-0.013c0.061-0.031,0.111-0.085,0.136-0.155c2.598-7.277,4.532-14.832,5.75-22.457
				c0.024-0.152-0.079-0.294-0.231-0.318C635.235,269.478,635.091,269.58,635.066,269.733z M633.45,268.832
				c0.088,0.078,0.212,0.091,0.311,0.041c0.03-0.015,0.058-0.036,0.082-0.063c0.102-0.114,0.093-0.29-0.022-0.392
				c-5.458-4.891-12.007-8.729-18.941-11.099c-0.146-0.049-0.303,0.028-0.353,0.173c-0.05,0.146,0.028,0.303,0.173,0.353
				C621.563,260.192,628.047,263.991,633.45,268.832z M642.629,232.311c-0.151-0.014-0.288,0.097-0.304,0.249
				c-1.16,11.754-3.418,23.467-6.714,34.813c-0.043,0.147,0.042,0.302,0.189,0.345c0.07,0.02,0.143,0.012,0.203-0.019
				c0.066-0.034,0.119-0.093,0.141-0.17c3.305-11.379,5.57-23.126,6.733-34.914C642.893,232.462,642.782,232.326,642.629,232.311z
				 M673.223,249.293l-35.632,17.551c-0.117,0.066-0.195,0.234-0.127,0.372c0.068,0.138,0.235,0.195,0.372,0.127l35.632-17.551
				l0.003-0.001c0.135-0.069,0.191-0.234,0.124-0.37C673.527,249.282,673.36,249.226,673.223,249.293z M634.053,269.742
				c0.158-0.084,0.2-0.23,0.136-0.369c-0.065-0.14-0.23-0.2-0.369-0.136c-10.45,4.819-20.306,11.923-29.302,21.127
				c-9.457,9.677-15.753,19.666-18.714,29.688c-0.043,0.147,0.041,0.302,0.188,0.345c0.07,0.021,0.143,0.012,0.204-0.019
				c0.066-0.033,0.119-0.093,0.141-0.169c2.935-9.935,9.185-19.845,18.578-29.457C613.864,281.598,623.666,274.523,634.053,269.742z
				"/>
			<path style="fill:#FCAB00;" d="M638.388,270.6c-0.635,1.188-2.162,1.778-3.463,1.425c-1.3-0.353-2.295-1.557-2.508-2.887
				c-0.261-1.635,0.686-3.406,2.217-4.033s3.493,0.01,4.306,1.452C639.755,267.998,639.245,270.055,638.388,270.6z"/>
		</g>
		<g>
			<path style="fill:#EE5952;" d="M436.748,97.561c0.087,1.787,0.71,3.545,1.769,4.987c0.713,0.972,1.614,1.798,2.279,2.803
				c0.666,1.005,1.082,2.285,0.601,4.463c-4.629,9.385-10.178,18.282-15.717,27.16c-0.793,1.272-1.611,2.571-2.796,3.489
				c-1.513,1.172-3.478,1.603-5.39,1.706c-5.039,0.271-9.976-1.51-14.471-3.803c-4.61-2.351-9.084-5.429-11.645-9.925
				c-0.699-1.228-1.248-2.724-0.715-4.266c4.733-10.655,10.831-20.702,18.097-29.819c0.352-0.441,0.712-0.886,1.168-1.219
				c1.678-1.226,3.993-0.607,6.053-0.331c2.867,0.385,5.955-0.074,8.256-1.827C428.232,93.452,432.41,95.627,436.748,97.561z"/>
			<path style="fill:#FBB4B8;" d="M407.678,104.206c-3.128,4.9-6.256,9.799-9.383,14.699c-0.503,0.787-1.011,1.586-1.294,2.476
				c-0.486,1.527-0.266,3.203,0.263,4.715c1.062,3.037,3.325,5.563,6.018,7.322c2.693,1.76,5.8,2.8,8.949,3.458
				c2.305,0.481,4.927,0.7,6.803-0.722c0.848-0.643,1.443-1.556,2.021-2.45c3.296-5.097,6.593-10.197,9.62-15.458
				c0.173-0.301,0.35-0.615,0.376-0.962c0.023-0.301-0.07-0.598-0.188-0.876c-0.716-1.685-2.301-2.814-3.836-3.811
				C421.03,108.704,414.508,105.407,407.678,104.206z"/>
			<path style="fill:#00CDCC;" d="M441.722,100.102c-6.306-1.755-12.338-4.489-17.815-8.074c-1.885-1.233-3.723-2.585-5.175-4.308
				c-0.247-0.293-0.492-0.62-0.519-1.002c-0.02-0.279,0.079-0.551,0.18-0.811c0.593-1.534,1.296-3.025,2.103-4.459
				c0.265-0.471,0.552-0.949,0.984-1.274c0.47-0.354,1.069-0.495,1.656-0.539c1.301-0.097,2.593,0.239,3.841,0.62
				c7.286,2.229,14.04,6.176,19.558,11.429c0.34,0.324,0.693,0.685,0.771,1.147c0.062,0.371-0.065,0.746-0.203,1.096
				C446.059,96.56,444.211,98.866,441.722,100.102z"/>
			<path d="M442.634,93.105c-0.029,0-0.059-0.005-0.087-0.014c-4.49-1.49-8.912-3.317-13.144-5.432
				c-2.249-1.124-4.772-2.515-6.247-4.814c-0.083-0.129-0.045-0.301,0.084-0.384c0.129-0.083,0.301-0.045,0.384,0.084
				c1.399,2.18,3.845,3.526,6.028,4.617c4.208,2.103,8.605,3.92,13.07,5.402c0.146,0.048,0.225,0.206,0.176,0.351
				C442.859,93.031,442.751,93.105,442.634,93.105z"/>
			<path style="fill:#F8A3A8;" d="M407.305,104.426c-0.59,1.637,0.706,3.314,1.988,4.491c4.321,3.965,9.626,6.85,15.303,8.32
				c1.211,0.314,2.438,0.564,3.665,0.803c1.007,0.196,2.26,0.292,2.846-0.549c0.357-0.511,0.312-1.222,0.043-1.785
				c-0.27-0.563-0.729-1.008-1.188-1.431c-4.834-4.456-10.646-7.847-16.904-9.862c-1.498-0.482-3.066-0.891-4.63-0.715
				C407.992,103.748,407.463,103.989,407.305,104.426z"/>
		</g>
		<path d="M584.904,251.436c0.004-0.058-0.005-0.118-0.039-0.171c-0.027-0.042-0.065-0.07-0.107-0.092
			c-0.724-1.24-1.737-2.333-3.106-3.056c-3.453-1.824-7.478-0.457-9.57,0.52c-1.878,0.877-4.209,2.436-4.642,4.88
			c-0.319,1.801-0.542,4.503,0.209,7.15c0.056,0.197,0.119,0.383,0.182,0.57c-0.027,0.073-0.026,0.156,0.015,0.229
			c0.024,0.043,0.059,0.075,0.098,0.099c0.634,1.725,1.563,2.986,2.773,3.748c1.089,0.686,2.452,1.01,4.265,1.01
			c0.137,0,0.277-0.002,0.419-0.005c2.256-0.059,4.241-0.506,5.899-1.33c1.968-0.978,3.478-2.504,4.251-4.295
			c0.527-1.218,0.759-2.662,0.69-4.29C586.175,254.831,585.767,253.029,584.904,251.436z M568.185,260.514
			c-0.723-2.545-0.506-5.157-0.198-6.9c0.392-2.209,2.571-3.652,4.331-4.474c1.292-0.604,3.353-1.365,5.524-1.365
			c1.186,0,2.406,0.227,3.551,0.832c1.231,0.65,2.152,1.628,2.823,2.742c-5.179,3.333-10.528,6.54-15.912,9.54
			C568.264,260.765,568.221,260.644,568.185,260.514z M585.042,260.471c-0.722,1.671-2.138,3.098-3.989,4.017
			c-1.585,0.788-3.491,1.216-5.666,1.272c-1.92,0.051-3.299-0.243-4.374-0.919c-1.092-0.688-1.937-1.838-2.527-3.417
			c5.414-3.014,10.793-6.239,16.001-9.59c0.77,1.477,1.136,3.138,1.198,4.59C585.751,257.969,585.535,259.331,585.042,260.471z"/>
		<path d="M117.93,231.277c-0.134-1.762-0.342-3.541-0.619-5.289c-0.019-0.116-0.107-0.203-0.214-0.227
			c-0.257-0.599-0.689-1.118-1.167-1.471c-0.985-0.729-2.2-0.977-3.258-1.124c-5.001-0.695-10.325,0.44-14.607,3.113
			c-1.146,0.716-2.938,2.133-3.009,4.001c-0.02,0.046-0.032,0.095-0.024,0.148c0.075,0.514,0.085,1.064,0.095,1.597
			c0.021,1.155,0.043,2.35,0.705,3.343c0.519,0.779,1.394,1.36,2.676,1.777c1.021,0.332,2.16,0.545,3.485,0.651
			c0.581,0.047,1.165,0.07,1.75,0.07c3.883,0,7.786-1.023,11.153-2.945c0.898-0.513,1.595-0.995,2.193-1.516
			c0.305-0.266,0.608-0.569,0.757-0.978C117.988,232.031,117.956,231.613,117.93,231.277z M98.358,226.751
			c3.368-2.104,7.398-3.23,11.39-3.23c0.954,0,1.907,0.064,2.847,0.195c0.989,0.138,2.119,0.366,3.004,1.02
			c0.539,0.399,1.04,1.078,1.156,1.821c-6.697,0.105-13.447,0.629-20.079,1.557C97.252,227.493,97.931,227.018,98.358,226.751z
			 M96.172,228.743C96.173,228.743,96.173,228.743,96.172,228.743c6.794-0.975,13.718-1.522,20.585-1.63
			c-0.01,0.078-0.015,0.156-0.035,0.234c-0.188,0.729-0.798,1.309-1.371,1.78c-1.356,1.116-2.7,2.031-3.422,2.332
			c-3.548,1.477-7.458,2.208-11.295,2.113c-1.036-0.025-2.129-0.11-3.103-0.554c-1.01-0.459-1.735-1.301-1.891-2.197
			C95.506,230.058,95.761,229.353,96.172,228.743z M117.321,232.236c-0.106,0.292-0.351,0.533-0.6,0.75
			c-0.569,0.497-1.237,0.958-2.103,1.453c-3.778,2.156-8.246,3.153-12.583,2.804c-1.28-0.103-2.379-0.308-3.358-0.626
			c-1.158-0.376-1.938-0.886-2.385-1.557c-0.532-0.798-0.585-1.775-0.607-2.813c0.391,0.525,0.942,0.972,1.615,1.279
			c1.068,0.486,2.278,0.578,3.32,0.604c0.225,0.005,0.45,0.008,0.675,0.008c3.7,0,7.437-0.744,10.848-2.164
			c0.932-0.388,2.451-1.503,3.561-2.416c0.495-0.407,1.014-0.893,1.331-1.499c0.138,1.087,0.259,2.176,0.341,3.261
			C117.403,231.678,117.417,231.974,117.321,232.236z"/>
		<g>
			<path style="fill:#EE5952;" d="M51.821,194.104c-0.071-5.968-0.142-11.935-0.213-17.903c-0.044-3.659-0.085-7.342,0.535-10.948
				c0.41-2.385,1.123-4.749,2.405-6.802c2.24-3.588,6.045-5.945,10.009-7.421c4.977-1.854,10.496-2.495,15.647-1.2
				c5.151,1.295,9.875,4.652,12.263,9.396c1.535,3.048,2.065,6.495,2.398,9.892c0.785,8.018,0.582,16.1,0.142,24.144
				c-0.014,0.259-0.039,0.543-0.219,0.729c-0.162,0.167-0.409,0.213-0.639,0.25C80.132,196.491,65.792,196.713,51.821,194.104z"/>
			<path style="fill:#EE5952;" d="M92.466,159.225c-1.747-3.469-4.745-6.193-8.243-7.914c2.394,4.551,3.375,9.83,3.946,14.99
				c1.054,9.511,0.95,19.106,0.792,28.676c1.733-0.214,3.462-0.459,5.187-0.736c0.23-0.037,0.477-0.083,0.639-0.25
				c0.181-0.187,0.205-0.47,0.219-0.729c0.439-8.044,0.643-16.127-0.142-24.144C94.531,165.721,94.001,162.274,92.466,159.225z"/>
			<polygon style="fill:#FFFFFF;" points="84.352,167.841 78.794,167.841 78.794,162.282 68.186,162.282 68.186,167.841 
				62.628,167.841 62.628,178.448 68.186,178.448 68.186,184.006 78.794,184.006 78.794,178.448 84.352,178.448 			"/>
			<path style="fill:#3F2532;" d="M54.34,192.699c12.498-0.187,24.997-0.373,37.496-0.56c2.049-0.031,4.273-0.006,5.895,1.247
				c1.284,0.993,1.968,2.708,1.72,4.312c-0.248,1.604-1.419,3.032-2.943,3.59c-0.851,0.312-1.772,0.363-2.678,0.4
				c-2.783,0.113-5.568,0.114-8.353,0.116c-10.341,0.006-20.682,0.012-31.023,0.017c-1.799,0.001-3.672-0.015-5.283-0.816
				c-1.61-0.802-2.855-2.646-2.36-4.375c0.265-0.924,0.97-1.662,1.745-2.23C50.18,193.208,52.223,192.731,54.34,192.699z"/>
		</g>
		<g>
			<path d="M362.92,79.924c-0.127-0.05-0.236-0.147-0.299-0.281c-0.13-0.278-0.011-0.609,0.267-0.739
				c5.986-2.812,12.106-5.543,18.191-8.118c0.282-0.12,0.609,0.012,0.728,0.295c0.12,0.283-0.012,0.609-0.295,0.728
				c-6.071,2.569-12.178,5.295-18.151,8.1C363.216,79.978,363.057,79.978,362.92,79.924z"/>
			<path style="fill:#C0DBF9;" d="M286.283,100.933c21.129-8.941,42.258-17.882,63.387-26.824c0.747-0.316,1.514-0.637,2.325-0.675
				c0.935-0.043,1.84,0.293,2.716,0.624c3.616,1.368,7.232,2.735,10.849,4.103c-0.68,4.698-1.566,9.365-2.656,13.985
				c-0.13,0.55-0.274,1.123-0.649,1.546c-0.354,0.399-0.866,0.613-1.361,0.814c-22.188,9.026-44.099,18.73-65.694,29.095
				C291.346,116.229,288.255,108.459,286.283,100.933z"/>
			<path style="fill:#EE5952;" d="M285.002,104.3c-9.863,4.35-19.727,8.699-29.59,13.049c1.696,6.044,4.241,11.849,7.537,17.192
				c9.632-4.413,19.263-8.826,28.895-13.24C290.792,115.025,288.445,108.97,285.002,104.3z"/>
			<path d="M307.104,105.919c-0.058-0.142-0.22-0.211-0.362-0.153c-0.142,0.058-0.211,0.22-0.153,0.362
				c1.102,2.717,2.416,5.376,3.905,7.903c0.033,0.055,0.082,0.095,0.137,0.117c0.077,0.03,0.166,0.026,0.243-0.019
				c0.132-0.078,0.176-0.248,0.098-0.38C309.497,111.245,308.195,108.61,307.104,105.919z M317.498,102
				c-0.052-0.145-0.211-0.22-0.355-0.169c-0.145,0.051-0.22,0.21-0.169,0.355l2.66,7.482c0.028,0.079,0.088,0.137,0.16,0.165
				c0.06,0.024,0.129,0.027,0.195,0.003c0.145-0.051,0.22-0.21,0.169-0.355L317.498,102z M327.943,97.678
				c-0.067-0.138-0.233-0.196-0.371-0.13c-0.138,0.067-0.196,0.233-0.13,0.371l3.251,6.734c0.032,0.065,0.086,0.113,0.148,0.138
				c0.07,0.028,0.15,0.027,0.223-0.008c0.138-0.067,0.196-0.233,0.13-0.371L327.943,97.678z M337.955,93.03
				c-0.08-0.131-0.252-0.17-0.383-0.091c-0.131,0.081-0.171,0.252-0.091,0.382c1.341,2.174,2.431,4.505,3.24,6.928
				c0.027,0.081,0.088,0.141,0.162,0.171c0.059,0.023,0.125,0.026,0.19,0.005c0.146-0.049,0.224-0.206,0.176-0.352
				C340.427,97.611,339.318,95.241,337.955,93.03z M352.512,96.07l-3.134-6.951c-0.063-0.14-0.228-0.202-0.368-0.139
				c-0.14,0.063-0.202,0.228-0.139,0.368l3.134,6.951c0.031,0.069,0.086,0.119,0.151,0.144c0.067,0.027,0.145,0.027,0.216-0.005
				C352.512,96.375,352.575,96.21,352.512,96.07z"/>
			<path style="fill:#EE5952;" d="M259.608,128.435c1.008,2.09,2.123,4.13,3.341,6.105c9.632-4.413,19.263-8.826,28.895-13.24
				c-0.422-2.518-1.057-5-1.883-7.372C279.697,118.45,269.575,123.291,259.608,128.435z"/>
			<path style="fill:#3F2532;" d="M264.526,134.363c-2.494-5.865-5.023-11.714-7.587-17.549c-0.295-0.672-0.726-1.396-1.143-2.115
				c-0.417-0.719-1.141-1.394-1.965-1.287c-0.805,0.104-1.349,0.947-1.398,1.757c-0.049,0.811,0.274,1.592,0.59,2.34
				c1.053,2.488,2.107,4.976,3.16,7.465c0.899,2.124,1.798,4.248,2.698,6.372c0.881,2.08,1.776,4.186,3.152,5.977
				c0.367,0.477,0.826,0.963,1.424,1.024c0.833,0.085,1.534-0.738,1.632-1.569C265.187,135.948,264.853,135.133,264.526,134.363z
				 M296.183,124.683c-2.783-8.413-5.959-16.696-9.513-24.813c-0.487-1.112-1.4-2.435-2.567-2.102
				c-0.733,0.209-1.134,1.053-1.092,1.814c0.042,0.761,0.19,1.497,0.391,2.001c3.101,7.754,6.201,15.508,9.302,23.263
				c0.304,0.759,0.634,1.555,1.28,2.057s1.71,0.563,2.2-0.092C296.626,126.218,296.415,125.384,296.183,124.683z"/>
		</g>
		<g>
			<path style="fill:#FFFFFF;" d="M563.503,140.473c8.786,7.73,17.572,15.46,26.358,23.191c2.863,2.519,5.781,5.105,7.643,8.432
				c1.862,3.327,2.498,7.596,0.646,10.93c-1.357,2.443-3.873,4.078-6.534,4.934c-1.863,0.6-3.861,0.861-5.792,0.541
				c-2.986-0.495-5.564-2.313-7.978-4.14c-7.769-5.882-15.049-12.378-22.319-18.867c-2.642-2.358-5.298-4.73-7.516-7.491
				c-2.58-3.212-4.597-7.313-3.77-11.349c0.348-1.697,1.186-3.273,2.289-4.61c2.061-2.5,5.111-4.198,8.338-4.483
				C558.097,137.274,561.34,138.569,563.503,140.473z"/>
			<path style="fill:#C0DBF9;" d="M591.617,187.959c2.127-0.684,4.15-1.875,5.574-3.57c-5.472,2.064-12.436-0.818-18.374-5.314
				c-5.947-4.502-19.879-16.311-26.674-24.126c-6.774-7.79-5.915-12.494-5.91-12.524c-0.953,1.252-1.674,2.688-1.989,4.227
				c-0.827,4.036,1.19,8.137,3.77,11.35c2.218,2.761,4.873,5.133,7.516,7.491c7.27,6.488,14.55,12.985,22.319,18.867
				c2.413,1.827,4.991,3.645,7.978,4.14C587.756,188.821,589.753,188.559,591.617,187.959z"/>
			<path style="fill:#EE5952;" d="M598.15,183.025c1.852-3.333,1.216-7.602-0.646-10.93c-1.862-3.327-4.78-5.914-7.643-8.432
				c-4.091-3.599-8.182-7.199-12.273-10.798c-3.631,2.13-7.031,4.732-9.681,8.002c-2.615,3.227-4.47,7.142-4.881,11.272
				c4.82,4.221,9.714,8.354,14.821,12.22c2.413,1.827,4.991,3.645,7.978,4.14c1.931,0.32,3.928,0.058,5.792-0.541
				C594.277,187.103,596.793,185.469,598.15,183.025z"/>
			<path style="fill:#EE5952;" d="M592.848,187.493c0.17-0.072,0.338-0.147,0.505-0.226c0.148-0.071,0.296-0.144,0.441-0.219
				c0.114-0.059,0.226-0.122,0.339-0.185c0.177-0.099,0.354-0.198,0.526-0.305c0.016-0.01,0.031-0.021,0.047-0.031
				c0.934-0.59,1.782-1.302,2.484-2.137c0,0,0,0,0,0c-5.472,2.064-12.436-0.818-18.374-5.314c-3.262-2.47-8.927-7.139-14.498-12.14
				c-0.664,1.669-1.114,3.417-1.292,5.205c2.294,2.009,4.608,3.996,6.951,5.946c0.277,0.231,0.556,0.459,0.834,0.689
				c0.865,0.714,1.735,1.421,2.61,2.123c0.321,0.258,0.641,0.516,0.964,0.772c1.145,0.908,2.297,1.808,3.462,2.69
				c2.413,1.827,4.991,3.645,7.978,4.14c1.931,0.32,3.928,0.058,5.792-0.541c0.299-0.096,0.595-0.206,0.889-0.322
				C592.621,187.592,592.734,187.542,592.848,187.493z"/>
		</g>
		<g>
			<path style="fill:#EBF7FA;" d="M87.621,358.529c5.241-8.559,10.482-17.118,15.724-25.678c2.482-4.053,5.306-8.391,9.797-9.947
				c2.929-1.015,6.346-0.609,8.876,1.181c2.531,1.791,4.063,4.956,3.759,8.041c-0.187,1.9-1.011,3.673-1.863,5.381
				c-4.546,9.113-10.248,17.592-15.931,26.042c-1.265,1.881-2.533,3.765-3.958,5.528c-0.944,1.167-1.971,2.292-3.232,3.106
				c-3.671,2.37-9.001,1.452-11.895-1.822C86.004,367.087,85.578,361.866,87.621,358.529z"/>
			<path style="fill:#C0DBF9;" d="M119.142,336.74c-4.263,6.607-16.966,27.182-20.318,30.904c-3.298,3.661-9.849,2.602-10.26,2.303
				c0.11,0.139,0.217,0.281,0.334,0.414c2.893,3.274,8.224,4.193,11.895,1.822c1.261-0.814,2.288-1.939,3.232-3.106
				c1.426-1.763,2.693-3.647,3.958-5.528c5.684-8.45,11.385-16.929,15.931-26.042c0.852-1.708,1.676-3.481,1.863-5.381
				c0.304-3.085-1.228-6.25-3.759-8.041C122.018,324.086,123.404,330.133,119.142,336.74z"/>
			<path style="fill:#EE5952;" d="M114.695,353.408c-3.374,0.565-6.85-0.272-9.984-1.643c-1.854-0.811-3.652-1.83-5.068-3.276
				c-1.416-1.446-2.428-3.362-2.488-5.385l-0.08-0.015c-3.152,5.147-6.303,10.293-9.455,15.44
				c-2.043,3.337-1.617,8.558,1.276,11.832c2.893,3.274,8.224,4.193,11.895,1.822c1.261-0.814,2.288-1.939,3.232-3.106
				c1.426-1.763,2.693-3.647,3.958-5.528c2.261-3.361,4.523-6.727,6.715-10.136L114.695,353.408z"/>
			<path style="fill:#EE5952;" d="M114.695,353.408c-1.981,0.332-3.997,0.178-5.959-0.282c-4.161,6.49-8.224,12.643-9.913,14.518
				c-3.298,3.661-9.849,2.602-10.26,2.303c0.11,0.139,0.217,0.281,0.334,0.414c2.893,3.274,8.224,4.193,11.895,1.822
				c1.261-0.814,2.288-1.939,3.232-3.106c1.426-1.763,2.693-3.647,3.958-5.528c2.261-3.361,4.523-6.727,6.715-10.136
				L114.695,353.408z"/>
		</g>
		<g>
			<path style="fill:#EBF7FA;" d="M182.307,191.956c10.377-8.568,20.753-17.136,31.13-25.704c2.743-2.265,5.597-4.682,6.861-8.007
				c1.545-4.066,0.203-9.008-3.076-11.867c-3.278-2.859-8.238-3.543-12.241-1.842c-2.46,1.045-4.498,2.86-6.499,4.632
				c-9.002,7.971-18.217,15.702-27.631,23.182c-1.692,1.344-3.416,2.708-4.654,4.479c-3.061,4.381-2.273,11.009,1.728,14.551
				S178.658,194.97,182.307,191.956z"/>
			<path style="fill:#C0DBF9;" d="M213.437,166.252c2.743-2.265,5.597-4.682,6.861-8.007c1.17-3.079,0.682-6.659-1.047-9.457
				c0.005,0.05,0.475,4.817-7.046,11.493c-7.561,6.711-30.752,25.145-34.235,27.099c-3.482,1.953-8.428,3.766-11.433,2.479
				c0.409,0.55,0.87,1.062,1.388,1.521c4.002,3.542,10.733,3.589,14.382,0.576C192.684,183.388,203.061,174.82,213.437,166.252z"/>
			<path style="fill:#FCAB00;" d="M194.993,166.842c-2.764-3.124-6.838-5.047-11.006-5.208c-4.335,3.625-8.712,7.201-13.136,10.716
				c-1.692,1.344-3.416,2.708-4.654,4.479c-3.061,4.381-2.273,11.009,1.728,14.551c4.002,3.542,10.733,3.589,14.382,0.576
				c5.506-4.546,11.012-9.093,16.518-13.639C199.148,174.187,197.738,169.946,194.993,166.842z"/>
			<path style="fill:#FCAB00;" d="M198.011,172.06c-8.682,6.977-17.942,14.143-20.041,15.321c-3.482,1.953-8.428,3.766-11.433,2.479
				c0,0,0,0,0,0c0.2,0.269,0.413,0.529,0.639,0.778c0.005,0.006,0.01,0.012,0.015,0.018c0.231,0.254,0.475,0.496,0.734,0.725
				c4.002,3.542,10.733,3.589,14.382,0.576c5.506-4.546,11.012-9.093,16.518-13.639C198.991,176.204,198.7,174.064,198.011,172.06z"
				/>
		</g>
	</g>
	<g>
		<g>
			<path style="fill:#FFFFFF;" d="M495.156,352.893c2.173-0.395,4.351-0.767,6.53-1.117c-1.25,2.417-1.617,5.346-1.917,8.119
				c-0.445,4.118-0.884,8.241-1.328,12.365c-0.406,3.784-0.811,7.597-0.622,11.381c-4.512-1.356-9.03-2.717-13.543-4.073
				c-1.589-8.119-1.323-16.599,0.767-24.602c0.328-0.072,0.656-0.15,0.984-0.217C489.059,354.066,492.099,353.455,495.156,352.893z"
				/>
			<path style="fill:#00CDCC;" d="M501.685,351.776c-2.178,0.35-4.357,0.722-6.53,1.117c-10.642-17.516-21.24-35.06-31.104-53.021
				c-0.923-1.684-1.845-3.373-2.729-5.085c3.19,1.978,6.93,3.162,10.586,4.179c8.575,2.39,17.299,4.257,26.096,5.596
				c0.934,0.139,1.889,0.272,2.806,0.05c0.895-0.217,1.667-0.756,2.406-1.306c6.88-5.085,12.637-11.67,16.772-19.161
				c12.092,18.75,19.083,40.773,19.928,63.074c-1.684,0.167-3.368,0.333-5.052,0.506
				C523.786,348.853,512.683,350.026,501.685,351.776z"/>
			<path d="M443.185,226.351c-7.419-7.802-13.782-17.172-15.405-27.819c-1.628-10.648,2.462-22.651,11.815-27.997
				c0.856-0.489,1.773-0.945,2.395-1.712c0.65-0.8,0.895-1.839,1.184-2.829c1.784-6.074,5.941-11.264,10.987-15.082
				c5.046-3.823,10.948-6.357,16.966-8.308c8.764-2.834,18.061-4.49,27.202-3.39c4.462,0.534,8.88,1.723,13.371,1.584
				c2.634-0.083,5.274-0.622,7.875-0.233c2.962,0.445,5.63,2.073,7.891,4.04c9.292,8.063,12.215,21.334,12.059,33.638
				c-0.106,8.402-1.912,17.65-8.075,23.123c-0.061-0.183-0.117-0.367-0.172-0.55c-2.645-8.564-5.741-17.038-7.358-25.33
				c-17.049,9.186-36.249,14.36-55.605,14.977c1.617,8.314,0.111,17.194-4.157,24.507c-2.106-1.767-4.751-2.901-7.497-3.095
				c-4.779-0.345-9.647,2.167-12.137,6.257c-1.395,2.284-2.062,5.096-1.417,7.691c0.044,0.172,0.089,0.339,0.145,0.506
				L443.185,226.351z"/>
			<path style="fill:#FFFFFF;" d="M611.645,332.198c-7.447-14.221-16.86-27.514-28.625-38.434
				c-4.985-4.624-10.586-8.914-17.172-10.609c-5.824-1.5-11.948-0.856-17.961-0.717c-9.442,0.211-18.911-0.872-28.064-3.218
				c-1.389-0.361-2.801-0.756-4.129-1.306c1.495,2.034,2.929,4.112,4.296,6.23c12.092,18.75,19.083,40.773,19.928,63.074
				c-1.684,0.167-3.368,0.333-5.052,0.506c-11.081,1.128-22.184,2.301-33.182,4.051c-1.25,2.417-1.617,5.346-1.917,8.119
				c-0.445,4.118-0.884,8.241-1.328,12.365c-0.406,3.784-0.811,7.597-0.622,11.381c-4.512-1.356-9.03-2.717-13.543-4.073
				c-3.701-1.111-7.397-2.228-11.098-3.34c-2.873-5.802-5.785-11.642-8.886-17.372c6.808-1.901,13.765-3.245,20.784-4.012
				c0.317-0.033,0.633-0.067,0.95-0.094c3.034-0.684,6.074-1.295,9.13-1.856c-10.642-17.516-21.24-35.06-31.103-53.021
				c-0.922-1.684-1.845-3.373-2.729-5.085c-1.823-3.534-3.49-7.147-4.707-10.914c-17.5,9.019-39.712,10.031-53.582,24.074
				c-8.819,8.93-12.648,21.973-12.259,34.521c0.389,12.542,4.624,24.691,10.092,35.988c4.835,9.986,10.67,19.495,17.377,28.331
				c6.83,8.986,15.31,17.728,26.341,20.1c6.869,1.478,14.004,0.311,20.901-1.017c29.592-5.702,58.612-14.41,86.453-25.947
				c2.979,0.895,5.963,1.795,8.941,2.69c9.803,2.951,19.795,5.93,30.026,5.735c10.236-0.189,20.928-4.073,26.869-12.404
				c3.512-4.929,5.102-11.009,5.641-17.033C624.866,362.691,619.192,346.619,611.645,332.198z"/>
			<path style="fill:#ED6C71;" d="M473.177,376.228c3.701,1.111,7.397,2.228,11.098,3.34c-1.589-8.119-1.323-16.599,0.767-24.602
				c0.011-0.039,0.022-0.083,0.033-0.122c-7.019,0.767-13.976,2.112-20.784,4.012C467.392,364.586,470.304,370.426,473.177,376.228z
				 M531.449,201.366c-0.061-0.183-0.117-0.367-0.172-0.55c-2.645-8.564-5.74-17.038-7.358-25.33
				c-17.049,9.186-36.249,14.36-55.605,14.977c1.617,8.314,0.111,17.194-4.157,24.507c-2.106-1.767-4.751-2.901-7.497-3.095
				c-4.779-0.345-9.647,2.167-12.137,6.257c-1.395,2.284-2.062,5.096-1.417,7.691c0.044,0.172,0.089,0.339,0.145,0.506
				c0.739,2.34,2.456,4.285,4.34,5.891c2.973,2.534,6.491,4.44,10.236,5.54c0.783,0.233,1.595,0.439,2.223,0.956
				c0.684,0.561,1.05,1.411,1.362,2.234c1.662,4.407,2.478,9.075,3.168,13.732c1.245,8.414,2.034,17.377-1.289,25.141
				c-2.123,1.523-4.357,2.856-6.674,4.051c1.217,3.768,2.884,7.38,4.707,10.914c3.19,1.978,6.93,3.162,10.586,4.179
				c8.575,2.39,17.299,4.257,26.096,5.596c0.934,0.139,1.889,0.272,2.806,0.05c0.895-0.217,1.667-0.756,2.406-1.306
				c6.88-5.085,12.637-11.67,16.772-19.161c-1.367-2.117-2.801-4.196-4.296-6.23c-1.345-0.556-2.612-1.273-3.684-2.256
				c-4.229-3.868-4.129-10.286-5.735-15.877c3.629-0.589,7.185-1.634,10.531-3.106c3.156-1.389,6.18-3.134,8.764-5.418
				c6.719-5.929,9.914-15.11,10.253-24.068C536.156,218.421,534.022,209.757,531.449,201.366z"/>
			<path style="fill:#C0DBF9;" d="M565.443,345.641c3.095-0.017,6.191,0.05,9.281,0.233c8.419,0.495,16.866,1.856,24.863,4.474
				c-4.618-4.835-11.387-7.413-18.066-8.508c-1.656-0.272-3.368-0.478-4.874-1.228c0.828-2.951,4.713-4.362,5.241-7.38
				c-3.262,1-6.13,3.251-7.869,6.185c-1.401-1.311-1.767-3.345-2.24-5.207c-1.495-5.891-4.668-11.198-7.802-16.405
				c-0.806-1.339-1.723-2.773-3.19-3.318c0.711,6.096,2.651,11.992,3.551,18.066C564.982,336.883,565.093,341.273,565.443,345.641z
				 M565.109,393.316c-18.316-2.506-46.275-9.064-67.27-14.343c-5.268-1.323-10.097-2.562-14.221-3.634
				c0.161,1.417,0.384,2.828,0.656,4.229c-3.701-1.111-7.397-2.228-11.098-3.34c-0.695-1.4-1.389-2.806-2.095-4.212
				c-2.195-4.407-4.44-8.819-6.791-13.159c-7.208-13.304-15.41-26.002-26.335-36.133c13.182,13.865,20.973,32.393,28.303,50.276
				c0.239,0.589,0.489,1.234,0.311,1.845c-0.15,0.506-0.561,0.884-0.961,1.228c-3.584,3.056-7.797,5.274-11.67,7.963
				c-3.873,2.684-7.53,6.03-9.225,10.431c2.94,0.806,5.879-1.023,8.452-2.662c6.035-3.829,12.47-7.03,19.172-9.519
				c-4.713,5.246-8.252,11.542-10.286,18.294c6.102-1.556,7.68-9.908,13.082-13.148c4.101-2.451,9.314-1.378,13.949-0.228
				c19.511,4.829,39.017,9.658,58.523,14.488c1.45-0.578,2.895-1.167,4.335-1.767c2.979,0.895,5.963,1.795,8.941,2.69
				c9.803,2.951,19.795,5.93,30.026,5.735c10.236-0.189,20.928-4.073,26.869-12.404c1.873-2.629,3.201-5.585,4.107-8.691
				C612.973,394.167,593.334,397.173,565.109,393.316z M543.484,317.611c4.965,2.922,10.08,5.592,15.316,7.994
				c-2.494,6.604-5.005,13.285-6.174,20.227l0.569-0.041c2.408-7.164,5.014-14.26,7.841-21.27
				c-4.629-2.655-9.447-4.981-14.405-6.955c3.084-4.195,6.303-8.291,9.651-12.28c-7.135-5.91-14.269-11.82-21.552-17.428
				c5.955,6.017,12.086,11.861,18.381,17.521C549.616,309.221,546.397,313.311,543.484,317.611z M462.879,323.811
				c-1.358,3.069-2.717,6.138-4.076,9.207c-0.207,0.468-0.419,0.97-0.331,1.474c0.088,0.503,0.457,0.903,0.809,1.273
				c4.953,5.192,9.914,10.392,15.31,15.122c2.012,1.763,4.158,3.492,6.628,4.46l0.749-0.107
				c-6.551-6.591-13.102-13.182-19.653-19.773c-0.439-0.441-0.902-0.933-0.969-1.552c-0.058-0.535,0.196-1.048,0.437-1.529
				c1.779-3.552,3.247-7.259,4.383-11.066c-5.591,0.517-11.231,0.498-16.819-0.056c-0.48-0.048-0.998-0.116-1.347-0.449
				c-0.39-0.372-0.456-0.962-0.495-1.5c-0.544-7.428-0.643-14.889-0.298-22.329c-0.696,8.699-1.301,17.315-1.739,25.94
				C451.175,324.146,457.078,324.445,462.879,323.811z"/>
			<path d="M520.514,218.535c0.142,0.141,0.269,0.278,0.276,0.406c0.005,0.088-0.047,0.199-0.104,0.316
				c-0.62,1.263-1.372,2.469-2.235,3.584c-0.094,0.122-0.072,0.296,0.05,0.39c0.05,0.039,0.11,0.058,0.17,0.058
				c0.083,0,0.165-0.037,0.22-0.108c0.885-1.145,1.657-2.382,2.294-3.678c0.069-0.14,0.173-0.351,0.16-0.592
				c-0.02-0.352-0.272-0.603-0.439-0.769c-2.808-2.799-5.325-5.906-7.479-9.233c-0.083-0.129-0.257-0.165-0.384-0.082
				c-0.129,0.083-0.165,0.256-0.082,0.385C515.136,212.57,517.678,215.707,520.514,218.535z M511.215,232.64
				c0.617,0,1.235-0.029,1.849-0.088c0.153-0.015,0.265-0.15,0.25-0.303c-0.015-0.153-0.15-0.263-0.303-0.25
				c-4.675,0.449-9.527-0.885-13.313-3.663c-0.122-0.09-0.296-0.064-0.389,0.06c-0.091,0.124-0.064,0.298,0.06,0.389
				C502.767,231.277,506.998,232.64,511.215,232.64z M613.073,355.97c-10.484-6.002-23.381-9.492-38.333-10.373
				c-12.152-0.716-24.36,0.319-34.898,1.351c-1.667,0.165-3.335,0.33-5.003,0.5c-11.307,1.151-22.354,2.328-33.198,4.053
				c-2.169,0.349-4.368,0.725-6.536,1.118c-3.252,0.597-6.242,1.205-9.136,1.857c-0.221,0.045-0.443,0.095-0.664,0.145l-0.051,0.012
				c-0.029-0.025-0.063-0.045-0.102-0.057c-0.142-0.038-0.282,0.036-0.334,0.169c-0.102,0.054-0.165,0.166-0.146,0.287
				c0.006,0.039,0.02,0.074,0.04,0.105c-2.017,7.872-2.28,16.225-0.763,24.199c-5.883-1.849-9.877-3.116-10.577-3.338
				c-2.909-5.875-5.777-11.618-8.839-17.275c-6.773-12.506-16.392-28.356-30.767-40.012c-0.119-0.097-0.294-0.078-0.391,0.041
				c-0.097,0.119-0.078,0.294,0.041,0.391c14.299,11.594,23.88,27.384,30.629,39.845c3.076,5.684,5.956,11.456,8.882,17.363
				l0.001,0.001c0.001,0.001,0.001,0.003,0.002,0.004l0.475,0.961c0.048,0.098,0.146,0.154,0.248,0.154
				c0.042,0,0.084-0.009,0.124-0.029c0.137-0.068,0.193-0.235,0.125-0.372l-0.188-0.381c6.585,2.088,63.886,20.22,78.161,23.504
				c0.021,0.005,0.042,0.007,0.062,0.007c0.127,0,0.241-0.087,0.271-0.215c0.034-0.15-0.059-0.299-0.208-0.333
				c-8.858-2.038-34.332-9.809-53.932-15.902c0.017-0.038,0.027-0.079,0.025-0.123c-0.189-3.785,0.223-7.625,0.621-11.338
				l1.328-12.365c0.31-2.862,0.688-5.617,1.83-7.897c10.783-1.711,21.773-2.882,33.021-4.027c1.667-0.17,3.334-0.335,5.05-0.505
				c10.466-1.025,22.648-2.058,34.761-1.345c14.865,0.876,27.68,4.342,38.09,10.3c0.043,0.025,0.091,0.037,0.138,0.037
				c0.096,0,0.19-0.05,0.241-0.14C613.252,356.216,613.206,356.046,613.073,355.97z M499.492,359.866l-1.328,12.365
				c-0.398,3.712-0.808,7.549-0.626,11.355c-4.816-1.498-9.256-2.888-12.991-4.061c-0.001-0.003,0.001-0.006,0-0.01
				c-1.567-8.007-1.315-16.413,0.723-24.315l0.158-0.035c0.218-0.049,0.435-0.098,0.659-0.144c2.892-0.652,5.875-1.258,9.118-1.853
				c1.993-0.362,4.01-0.707,6.007-1.03C500.161,354.423,499.792,357.095,499.492,359.866z"/>
			<path d="M491.517,189.622c-1.615-0.736-3.483-0.785-5.218-0.411c-1.735,0.374-3.358,1.146-4.912,2.004
				c-2.011,1.11-4.12,2.643-4.472,4.912c-0.049,0.314-0.056,0.653,0.1,0.929c0.271,0.479,0.947,0.586,1.464,0.396
				s0.917-0.596,1.323-0.967c3.104-2.842,7.547-4.151,11.696-3.447c0.485,0.082,1.237,0.03,1.571-0.5
				c0.334-0.529,0.245-1.249-0.095-1.775C492.634,190.239,492.086,189.881,491.517,189.622z M527.447,184.567
				c-0.61-1.091-1.753-1.815-2.961-2.137c-1.208-0.323-2.484-0.284-3.726-0.142c-3.189,0.366-6.504,1.555-8.361,4.174
				c-0.314,0.442-0.586,0.938-0.628,1.478c-0.042,0.54,0.196,1.131,0.682,1.371c0.588,0.291,1.296-0.007,1.831-0.387
				c0.535-0.38,0.199-0.422,2.463-1.533c2.264-1.111,5.019-2.073,8.449-1.297c0.47,0.106,0.948,0.243,1.426,0.183
				c0.478-0.06,0.965-0.38,1.041-0.856C527.71,185.125,527.593,184.828,527.447,184.567z"/>
			<path style="fill:#ED6C71;" d="M534.232,342.735c-2.444-0.138-4.972-0.281-7.291-1.056c-2.467-0.825-4.395-2.36-5.29-4.213
				c-0.759-1.568-0.857-3.399-0.893-5.14c-0.188-9.128,1.276-18.116,4.352-26.712c0.155-0.433-0.07-0.91-0.504-1.065
				c-0.434-0.155-0.911,0.071-1.065,0.504c-3.144,8.788-4.642,17.976-4.45,27.308c0.038,1.84,0.154,3.96,1.059,5.831
				c1.105,2.287,3.329,4.087,6.263,5.069c2.53,0.846,5.171,0.995,7.725,1.14c0.016,0,0.032,0.001,0.048,0.001
				c0.439,0,0.807-0.343,0.832-0.786C535.043,343.155,534.692,342.761,534.232,342.735z M555.741,320.852
				c-2.026-7.567-5.173-14.762-9.353-21.385c-0.246-0.39-0.761-0.505-1.15-0.26c-0.389,0.246-0.506,0.76-0.26,1.15
				c4.09,6.481,7.17,13.522,9.152,20.926c1.754,6.551,1.546,11.188-0.654,14.593c-2.053,3.178-5.793,4.948-8.821,6.136
				c-0.428,0.168-0.64,0.652-0.472,1.081c0.129,0.328,0.443,0.529,0.776,0.529c0.102,0,0.205-0.018,0.304-0.057
				c3.261-1.279,7.301-3.205,9.613-6.783C558.128,331.75,556.927,325.281,555.741,320.852z"/>
			<path style="fill:#ED6C71;" d="M458.367,334.9c2.26-3.387,6.407-5.473,10.461-5.093c4.054,0.38,7.803,3.296,9.006,7.186
				c1.553,5.021-1.46,10.852-6.265,12.982c-4.573,2.027-10.587,0.626-13.331-3.556C455.843,342.77,456.556,337.614,458.367,334.9z"
				/>
			<path d="M463.385,344.32c-0.049-0.035-0.097-0.07-0.144-0.106c-1.848-1.412-2.319-4.061-1.424-6.135
				c0.612-1.418,1.858-2.499,3.263-3.142c2.017-0.923,4.525-0.956,6.359,0.292c1.155,0.786,1.977,2.044,2.233,3.417
				c0.362,1.94-0.439,4.022-1.925,5.32s-3.586,1.815-5.532,1.489C465.284,345.299,464.181,344.88,463.385,344.32z"/>
			<path style="fill:#ED6C71;" d="M532.604,294.354c-3.455-13.139-13.406-24.513-25.968-29.684
				c-0.707-0.292-1.521,0.046-1.813,0.756c-0.292,0.71,0.046,1.521,0.756,1.814c11.774,4.847,21.099,15.507,24.338,27.821
				c0.164,0.624,0.727,1.037,1.343,1.037c0.117,0,0.236-0.015,0.354-0.046C532.355,295.855,532.798,295.096,532.604,294.354z
				 M466.518,266.643c-7.893,5.437-13.01,11.618-15.208,18.371c-1.238,3.802-1.687,8.154-1.411,13.695
				c0.639,12.878,4.554,25.231,11.323,35.725c0.265,0.412,0.713,0.636,1.168,0.636c0.258,0,0.519-0.072,0.752-0.222
				c0.645-0.416,0.83-1.275,0.414-1.921c-6.504-10.085-10.267-21.965-10.882-34.357c-0.258-5.193,0.148-9.228,1.278-12.697
				c2.005-6.159,6.764-11.859,14.143-16.943c0.632-0.435,0.791-1.3,0.356-1.932C468.015,266.367,467.149,266.209,466.518,266.643z"
				/>
			<path d="M488.496,201.698c-1.623,0.27-2.59,2.578-2.161,5.156c0.429,2.577,2.092,4.447,3.715,4.177
				c1.623-0.27,2.59-2.578,2.161-5.156C491.782,203.299,490.119,201.428,488.496,201.698z M524.259,198.586
				c-0.429-2.577-2.092-4.448-3.715-4.177c-1.623,0.27-2.59,2.578-2.161,5.156c0.429,2.577,2.092,4.448,3.715,4.178
				C523.72,203.471,524.688,201.163,524.259,198.586z"/>
			<path d="M537.495,341.802c-0.041-0.086-0.094-0.17-0.174-0.221c-0.098-0.062-0.221-0.067-0.337-0.064
				c-0.94,0.021-1.83,0.408-2.756,0.575c-0.585,0.105-0.434,0.488-0.459,0.955c-0.03,0.553-0.045,1.108-0.046,1.662
				c0,0.061,0.002,0.128,0.041,0.174c0.028,0.032,0.069,0.049,0.109,0.064c0.96,0.364,1.981,0.569,3.008,0.602
				c0.246,0.008,0.528-0.01,0.68-0.204c0.093-0.119,0.113-0.278,0.127-0.429c0.073-0.805,0.063-1.616-0.028-2.419
				C537.633,342.259,537.597,342.018,537.495,341.802z M546.037,343.168c-0.09-0.236-0.222-0.447-0.297-0.691
				c-0.107-0.349-0.197-0.705-0.295-1.056c-0.019-0.068-0.041-0.142-0.097-0.186c-0.064-0.051-0.154-0.049-0.235-0.045l-3.189,0.166
				c-0.241,0.012-0.517,0.043-0.655,0.241c-0.112,0.161-0.092,0.377-0.053,0.568c0.117,0.57,0.358,1.108,0.504,1.671
				c0.082,0.316,0.134,0.638,0.185,0.961c0.035,0.222,0.079,0.464,0.248,0.613c0.225,0.2,0.574,0.151,0.859,0.055
				c0.803-0.271,1.481-0.816,2.237-1.199C545.672,344.052,546.251,343.73,546.037,343.168z"/>
			<path d="M523.166,305.248c1.133-4.165,3.115-8.41,6.817-10.629c2.469-1.48,5.527-1.889,8.334-1.252
				c2.807,0.638,5.349,2.288,7.192,4.499c0.581,0.698,1.106,1.713,0.589,2.459c-0.405,0.583-1.279,0.652-1.929,0.367
				c-0.65-0.285-1.14-0.831-1.649-1.326c-2.891-2.814-7.476-4.27-11.069-2.434c-2.681,1.37-4.275,4.232-5.183,7.102
				c-0.248,0.784-0.516,1.659-1.23,2.068C524.323,306.51,522.994,305.88,523.166,305.248z"/>
			<path style="fill:#ED6C71;" d="M452.931,218.752c-0.855,0.26-1.675,0.705-2.249,1.391c-0.573,0.686-0.871,1.633-0.65,2.499
				c0.049,0.191,0.131,0.389,0.298,0.494c0.279,0.175,0.64,0.018,0.926-0.145c1.067-0.609,2.109-1.307,3.298-1.616
				c1.189-0.31,2.596-0.145,3.419,0.767c0.715,0.793,0.835,1.943,1.273,2.916c0.439,0.974,1.596,1.852,2.83,1.606
				c-0.226-1.609-0.466-3.258-1.245-4.683C459.355,219.279,455.877,217.857,452.931,218.752z M471.082,372.016
				c0.706,1.406,1.4,2.812,2.095,4.212c3.701,1.111,7.397,2.228,11.098,3.34c-0.272-1.4-0.495-2.812-0.656-4.229
				C477.817,373.827,473.394,372.638,471.082,372.016z M506.275,259.783c-9.914,1.628-20.378-0.111-28.586-5.707
				c1.273,3.445,3.762,6.424,6.735,8.619c3.545,2.623,7.758,4.224,12.026,5.352c3.868,1.022,8.008,1.651,11.926,1.122
				C507.526,266.162,507.159,262.85,506.275,259.783z"/>
			<path style="fill:#EE5952;" d="M482.747,214.27c-4.95,0-8.962,3.727-8.962,8.325s4.013,8.325,8.962,8.325
				c4.95,0,8.962-3.727,8.962-8.325S487.697,214.27,482.747,214.27z M532.158,203.732c-0.683-0.155-1.392-0.246-2.127-0.246
				c-4.95,0-8.962,3.727-8.962,8.325c0,4.598,4.013,8.325,8.962,8.325c2.019,0,3.875-0.628,5.374-1.674
				C534.782,213.489,533.575,208.569,532.158,203.732z"/>
			<path style="fill:#EE5952;" d="M484.193,217.499c-0.109-0.108-0.285-0.107-0.393,0.002c-2.015,2.034-3.889,4.239-5.571,6.553
				c-0.09,0.124-0.063,0.298,0.061,0.388c0.049,0.036,0.106,0.053,0.163,0.053c0.086,0,0.17-0.04,0.225-0.114
				c1.666-2.291,3.522-4.474,5.517-6.488C484.303,217.783,484.302,217.607,484.193,217.499z M485.314,219.574
				c-1.517,1.85-2.781,3.896-3.754,6.082c-0.062,0.14,0.001,0.305,0.141,0.367c0.036,0.016,0.075,0.024,0.113,0.024
				c0.106,0,0.208-0.061,0.254-0.165c0.953-2.141,2.189-4.145,3.676-5.956c0.097-0.119,0.08-0.294-0.039-0.391
				C485.588,219.438,485.412,219.455,485.314,219.574z M530.381,209.305c0.113-0.103,0.122-0.279,0.018-0.393
				c-0.103-0.113-0.279-0.121-0.392-0.018c-1.683,1.537-3.238,3.236-4.621,5.048c-0.093,0.122-0.07,0.296,0.052,0.389
				c0.05,0.038,0.11,0.057,0.169,0.057c0.084,0,0.166-0.038,0.221-0.109C527.19,212.494,528.722,210.821,530.381,209.305z
				 M532.732,209.8c-0.105-0.111-0.281-0.116-0.393-0.011c-1.437,1.359-2.771,2.847-3.966,4.422
				c-0.093,0.122-0.069,0.297,0.054,0.389c0.05,0.038,0.109,0.056,0.168,0.056c0.084,0,0.167-0.038,0.221-0.11
				c1.177-1.551,2.49-3.016,3.905-4.354C532.833,210.087,532.837,209.911,532.732,209.8z"/>
			<path d="M534.251,197.729c-0.358-5.361-4.852-9.996-10.02-10.333c-3.28-0.215-6.142,1.162-7.964,2.354
				c-1.443,0.944-2.617,2.013-3.491,3.178c-1.471,1.962-2.158,4.456-2.079,6.936c-3.337-0.091-6.681,0.615-9.704,2.031
				c-0.807-2.531-2.333-4.636-4.307-5.93c-1.153-0.755-2.536-1.293-4.112-1.597c-3.416-0.661-7.006-0.044-9.847,1.693
				c-2.97,1.816-5.096,4.868-5.688,8.165c-0.257,1.433-0.229,2.936,0.054,4.427c-0.045-0.004-0.091,0-0.135,0.02l-12.826,5.769
				c-0.14,0.063-0.202,0.227-0.139,0.367c0.046,0.103,0.148,0.164,0.254,0.164c0.039,0,0.077-0.008,0.114-0.024l12.826-5.769
				c0.006-0.003,0.009-0.008,0.015-0.011c0.259,1.122,0.66,2.233,1.212,3.295c0.812,1.566,1.832,2.847,3.032,3.808
				c1.861,1.489,4.377,2.299,6.995,2.299c0.673,0,1.354-0.054,2.031-0.163c2.84-0.458,5.752-1.866,8.422-4.072
				c2.979-2.461,3.373-7.851,2.257-11.902c2.981-1.412,6.291-2.111,9.586-2.015c0.179,2.3,1.011,4.553,2.496,6.321
				c2.174,2.587,5.611,4.027,9.032,4.027c1.547,0,3.092-0.295,4.513-0.912C531.366,207.864,534.579,202.651,534.251,197.729z
				 M498.538,213.908c-2.593,2.142-5.414,3.509-8.157,3.951c-3.158,0.509-6.371-0.246-8.59-2.021
				c-1.139-0.912-2.11-2.133-2.887-3.63c-1.31-2.524-1.779-5.324-1.319-7.883c0.564-3.143,2.594-6.055,5.431-7.789
				c2.007-1.227,4.406-1.871,6.843-1.871c0.87,0,1.745,0.082,2.609,0.249c1.504,0.291,2.821,0.801,3.912,1.516
				c1.881,1.233,3.337,3.252,4.101,5.686C501.729,206.091,501.343,211.59,498.538,213.908z M526.555,209.346
				c-4.348,1.887-9.893,0.612-12.898-2.963c-3.045-3.622-3.237-9.386-0.436-13.121c0.835-1.113,1.962-2.138,3.35-3.046
				c1.631-1.066,4.121-2.286,6.979-2.286c0.213,0,0.429,0.007,0.646,0.021c4.899,0.319,9.161,4.722,9.501,9.815
				C534.01,202.465,530.94,207.443,526.555,209.346z"/>
		</g>
		<g>
			<path style="fill:#FFFFFF;" d="M192.655,402.704c-0.845-1.184-1.161-2.656-1.456-4.079c-4.929-23.568-9.853-47.13-14.777-70.699
				c-0.45-2.162-0.906-4.323-1.345-6.48c-10.064,18.644-18.772,38.784-18.261,59.895c0.128,5.251,0.856,10.57,2.99,15.371
				c3.946,8.875,12.47,15.171,21.756,18.016c6.213,1.901,12.932,2.406,19.239,0.845c3.723-0.917,7.291-2.59,10.336-4.913
				c-4.362-1.539-8.719-3.095-13.076-4.663C196.04,405.277,193.895,404.455,192.655,402.704z M240.819,288.26
				c-2.851,1.517-5.657,3.134-8.402,4.846c-10.142,6.319-19.45,13.982-27.019,23.19c3.668,0.767,7.335,1.534,11.003,2.301
				c1.845,0.383,3.751,0.8,5.252,1.934c1.022,0.778,1.795,1.989,1.945,3.229c6.663,1.712,13.287,3.562,19.872,5.546
				c2.051-5.246,4.129-10.481,6.269-15.688c2.979-7.246,6.113-14.521,10.286-21.123c1.339-2.123,2.784-4.173,4.368-6.13
				c1.034-1.278,2.128-2.523,3.034-3.896c0.861-1.311,1.534-2.706,2.084-4.168C259.447,279.529,249.805,283.475,240.819,288.26z
				 M377.598,327.538c-4.935-7.83-11.048-14.877-18.027-20.951c-10.742-9.353-23.535-16.388-37.222-20.373
				c-3.206,5.785-6.413,11.576-9.486,17.433c-4.412,8.408-8.564,16.938-12.076,25.752c-5.285,13.248-9.119,27.214-10.042,41.418
				c-0.317-0.117-0.639-0.228-0.961-0.339c-1.356,1.65-2.668,3.34-3.923,5.068c-6.041,8.275-10.936,17.388-14.499,26.997
				c-0.9,2.412-1.712,4.857-2.44,7.33c3.973,2.512,7.98,4.929,12.031,7.213c8.925,5.029,18.094,9.392,27.703,12.62
				c13.971,4.69,28.964,6.924,43.54,4.763c5.613-0.828,11.192-2.329,16.138-5.118c12.076-6.808,18.828-20.445,21.684-34.016
				C394.87,372.29,390.158,347.466,377.598,327.538z"/>
			<path style="fill:#00CDCC;" d="M280.953,417.086c-6.663-0.895-13.298-1.984-19.895-3.262c-1.134-6.135-2.495-12.226-4.068-18.266
				c1.295,0.25,2.579,0.534,3.846,0.895c3.957,1.117,7.841,3.034,10.525,6.091c-0.9,2.412-1.712,4.857-2.44,7.33
				C272.895,412.385,276.902,414.802,280.953,417.086z"/>
			<path style="fill:#00CDCC;" d="M312.863,303.647c-4.412,8.408-8.564,16.938-12.076,25.752
				c-5.285,13.248-9.119,27.214-10.042,41.418c-0.317-0.117-0.639-0.228-0.961-0.339c-1.356,1.65-2.668,3.34-3.923,5.068
				c-3.579-1.111-7.158-2.256-10.531-3.884c-8.141-3.929-15.338-10.72-24.096-12.12c-1.817-9.847-3.634-19.689-5.452-29.536
				c-0.767-0.233-1.539-0.472-2.312-0.7c2.051-5.246,4.129-10.481,6.269-15.688c2.979-7.247,6.113-14.521,10.286-21.123
				c2.034,4.957,4.985,9.692,9.597,12.32c3.095,1.762,6.68,2.428,10.203,2.94c6.535,0.945,13.204,1.445,19.734,0.483
				C304.227,307.554,308.839,306.07,312.863,303.647z"/>
			<path style="fill:#3F2532;" d="M175.078,321.447c-0.322-1.528-0.634-3.057-0.945-4.585c-0.122-0.6-0.228-1.278,0.139-1.773
				c0.378-0.506,1.1-0.584,1.734-0.595c0.528-0.011,1.056,0,1.584,0.017c2.495,0.1,4.985,0.511,7.452,0.945
				c1.967,0.345,3.929,0.695,5.891,1.067c10.964,2.045,21.862,4.457,32.665,7.236c6.663,1.712,13.287,3.562,19.872,5.546
				c0.773,0.228,1.545,0.467,2.312,0.7c1.817,9.847,3.634,19.689,5.452,29.536c0.567,3.068,1.134,6.13,1.701,9.197
				c-9.503,0.545-18.961-2.001-28.481-2.756c-0.394-0.033-0.817-0.055-1.161,0.139c-0.978,0.539-0.483,2.056,0.256,2.89
				c0.122,0.133,0.245,0.267,0.372,0.395c-0.917,0.422-1.773,1.05-1.817,2.012c-0.017,0.522,0.222,1.017,0.5,1.456
				c0.3,0.472,0.645,0.911,1.022,1.317c-0.628,0.578-1.156,1.245-1.267,2.073c-0.161,1.184,0.595,2.284,1.4,3.156
				c0.339,0.367,0.689,0.723,1.056,1.061c-0.622,1.323-0.317,3.045,0.539,4.279c1.011,1.462,2.612,2.39,4.196,3.201
				c5.446,2.795,11.298,4.807,17.311,5.946c3.362,0.639,6.78,1.011,10.131,1.651c1.573,6.041,2.934,12.131,4.068,18.266
				c0.695,3.729,1.306,7.469,1.834,11.226c0.078,0.534,0.145,1.106-0.083,1.595c-0.578,1.256-2.406,1.017-3.718,0.578
				c-16.032-5.39-32.015-10.909-47.953-16.56c-4.362-1.539-8.719-3.095-13.076-4.663c-2.023-0.722-4.168-1.545-5.407-3.295
				c-0.845-1.184-1.161-2.656-1.456-4.079c-4.929-23.568-9.853-47.13-14.777-70.698
				C175.973,325.765,175.517,323.603,175.078,321.447z"/>
			<path style="fill:#C0DBF9;" d="M205.398,316.296c3.668,0.767,7.335,1.534,11.003,2.301c1.845,0.383,3.751,0.8,5.252,1.934
				c1.022,0.778,1.795,1.99,1.945,3.229c-10.803-2.779-21.701-5.19-32.665-7.236c0.039-0.8,0.539-1.656,1.273-2.039
				c1.239-0.645,2.734-0.372,4.107-0.089c0.395,0.083,0.789,0.167,1.184,0.25C200.13,315.195,202.764,315.746,205.398,316.296z"/>
			<path style="fill:#3F2532;" d="M294.524,183.373c-7.152-1.945-14.843-2.195-21.945-0.083
				c-7.197,2.134-13.737,6.797-17.566,13.254c-2.428,4.107-3.718,8.769-4.907,13.393c-1.7,6.641-3.245,13.321-4.79,20
				c-1,4.312-2.001,8.68-1.917,13.109c0.172,8.975,5.157,17.716,12.793,22.434c4.607,2.845,9.942,4.229,15.321,5.04
				c-0.495,2.64-1.061,5.291-2.001,7.78c-10.064,1.228-19.706,5.174-28.692,9.958c-2.851,1.517-5.657,3.134-8.402,4.846
				c-11.787-10.464-18.528-27.619-12.982-42.307c4.407-11.665,15.438-19.823,20.022-31.42c3.073-7.786,2.968-16.444,5.04-24.557
				c3.307-12.926,12.426-24.24,24.357-30.209c11.926-5.968,26.452-6.485,38.773-1.378c0.9,0.372,1.823,0.778,2.795,0.745
				c1.045-0.039,1.995-0.578,2.923-1.056c9.03-4.624,20.356-3.69,29.17,1.323c8.814,5.018,15.193,13.726,18.561,23.296
				c2.795,7.947,3.684,16.577,7.474,24.107c2.868,5.691,7.252,10.464,10.592,15.888c8.33,13.532,9.642,30.842,4.69,45.941
				c-4.324,13.209-13.171,24.685-24.263,33.11c-10.742-9.353-23.535-16.388-37.222-20.373c-0.039-0.011-0.083-0.022-0.122-0.033
				c-2.278-12.848-2.884-26.174-1.695-39.334c5.152,1.228,10.742,1.973,15.593-0.15c4.846-2.123,8.336-8.086,6.074-12.87
				c-0.772-1.639-2.117-2.962-3.618-3.979c-6.18-4.179-15.421-2.89-20.223,2.812c0.867-5.29-0.245-10.881-3.068-15.438
				c-4.968-8.025-14.654-12.454-18.867-20.901c-1.967-3.946-2.545-8.564-1.617-12.87c-0.089-0.022-0.172-0.05-0.261-0.072
				C294.541,183.379,294.535,183.373,294.524,183.373z"/>
			<path style="fill:#00CDCC;" d="M165.536,299.896c-1.723,2.523-3.44,5.057-5.152,7.597c-0.278,1.856-0.561,3.712-0.845,5.568
				c1.756-1.178,3.512-2.351,4.996-3.512c1.406-1.606,2.729-3.279,3.99-4.99c-0.061-0.072-0.122-0.145-0.183-0.217
				C167.22,302.986,166.125,301.536,165.536,299.896z M193.083,261.858c-2.667,3.451-5.307,6.935-7.919,10.453
				c-1.139,1.534-2.273,3.073-3.401,4.618c1.323,1.2,2.501,2.562,3.418,4.068c1.045-1.334,2.089-2.667,3.112-4.018
				c0.128-0.172,0.256-0.339,0.383-0.511c3.029-4.046,5.824-8.258,8.819-12.37C196.073,263.258,194.6,262.513,193.083,261.858z"/>
			<path style="fill:#FBB4B8;" d="M251.234,359.542c0.567,3.068,1.134,6.13,1.701,9.197c-9.503,0.545-18.961-2.001-28.481-2.756
				c-0.394-0.033-0.817-0.056-1.161,0.139c-0.978,0.539-0.483,2.056,0.256,2.89c0.122,0.133,0.245,0.267,0.372,0.395
				c-0.917,0.422-1.773,1.05-1.817,2.012c-0.017,0.522,0.222,1.017,0.5,1.456c0.3,0.473,0.645,0.911,1.022,1.317
				c-0.628,0.578-1.156,1.245-1.267,2.073c-0.161,1.184,0.595,2.284,1.4,3.156c0.339,0.367,0.689,0.723,1.056,1.061
				c-0.622,1.323-0.317,3.045,0.539,4.279c1.011,1.462,2.612,2.389,4.196,3.201c5.446,2.795,11.298,4.807,17.311,5.946
				c3.362,0.639,6.78,1.011,10.131,1.651c1.295,0.25,2.579,0.534,3.846,0.895c3.957,1.117,7.841,3.034,10.525,6.091
				c3.562-9.608,8.458-18.722,14.499-26.997c-3.579-1.111-7.158-2.256-10.531-3.884
				C267.188,367.733,259.992,360.942,251.234,359.542z M195.173,299.107c0.311-2.379,1.067-4.674,1.45-7.041
				c0.378-2.367,0.356-4.913-0.795-7.019c-1.195-2.178-3.412-3.562-5.185-5.302c-0.872-0.85-1.639-1.789-2.351-2.767
				c-1.023,1.35-2.067,2.684-3.112,4.018c-0.917-1.506-2.095-2.867-3.418-4.068c1.128-1.545,2.262-3.084,3.401-4.618
				c-0.411-0.611-0.833-1.212-1.278-1.795c-0.839-1.1-2.051-2.245-3.401-1.951c-0.828,0.178-1.456,0.872-1.828,1.634
				c-0.678,1.395-0.656,3.112,0.061,4.485c-0.372-0.183-0.767-0.322-1.178-0.4c-1.073-0.206-2.312,0.122-2.912,1.039
				c-0.767,1.178-0.222,2.751,0.445,3.99c0.172,0.317,0.344,0.628,0.534,0.939l-0.356,0.211c-1.55-0.845-3.584,0.45-4.118,2.134
				c-0.506,1.606-0.044,3.329,0.556,4.913l-0.228,0.089c-1.445,0.222-2.906,0.962-3.551,2.267c-0.517,1.05-0.434,2.24-0.083,3.379
				l-0.278,0.039c-1.939,0.911-2.729,3.401-2.317,5.507c0.072,0.378,0.178,0.745,0.306,1.106c0.589,1.639,1.684,3.09,2.806,4.446
				c0.061,0.072,0.122,0.145,0.183,0.217c1.45,1.739,3.068,3.429,5.146,4.301c0.956,0.406,2.189,0.578,2.94-0.139
				c0.022-0.022,0.039-0.039,0.061-0.061c0.217,1.906,0.584,4.235,0.923,5.774l-0.006,0.078c2.495,0.1,4.985,0.511,7.452,0.945
				c1.967,0.345,3.929,0.695,5.891,1.067c0.039-0.8,0.539-1.656,1.273-2.039c1.239-0.645,2.734-0.372,4.107-0.089
				c0.395,0.083,0.789,0.167,1.184,0.25C196.879,310.166,194.589,303.564,195.173,299.107z M342.199,233.827
				c-0.772-1.639-2.117-2.962-3.618-3.979c-6.18-4.179-15.421-2.89-20.223,2.812c0.867-5.29-0.245-10.881-3.068-15.438
				c-4.968-8.025-14.654-12.454-18.867-20.901c-1.967-3.946-2.545-8.564-1.617-12.87c-0.089-0.022-0.172-0.05-0.261-0.072
				c-0.022,0.011-0.044,0.017-0.067,0.028c0.017-0.011,0.028-0.022,0.044-0.033c-7.152-1.945-14.843-2.195-21.945-0.083
				c-7.197,2.134-13.737,6.796-17.566,13.254c-2.428,4.107-3.718,8.769-4.907,13.393c-1.7,6.641-3.245,13.321-4.79,20
				c-1,4.312-2.001,8.68-1.917,13.109c0.172,8.975,5.157,17.716,12.793,22.434c4.607,2.845,9.942,4.229,15.321,5.04
				c-0.495,2.64-1.061,5.291-2.001,7.78c-0.55,1.461-1.223,2.856-2.084,4.168c-0.906,1.373-2.001,2.617-3.034,3.896
				c-1.584,1.956-3.029,4.007-4.368,6.13c2.034,4.957,4.985,9.692,9.597,12.32c3.095,1.762,6.68,2.428,10.203,2.94
				c6.535,0.945,13.204,1.445,19.734,0.483c4.668-0.684,9.28-2.167,13.304-4.59c3.073-5.857,6.28-11.648,9.486-17.433
				c-0.039-0.011-0.083-0.022-0.122-0.033c-2.278-12.848-2.884-26.174-1.695-39.334c5.152,1.228,10.742,1.973,15.594-0.15
				C340.971,244.575,344.461,238.612,342.199,233.827z"/>
			<path style="fill:#C0DBF9;" d="M195.884,405.15c-25.402,5.452-35.433-15.721-39.05-27.936c-0.045,1.373-0.05,2.751-0.017,4.129
				c0.128,5.251,0.856,10.57,2.99,15.371c3.946,8.875,12.47,15.171,21.756,18.016c6.213,1.901,12.932,2.406,19.239,0.845
				c3.723-0.917,7.291-2.59,10.336-4.913c-4.362-1.539-8.719-3.095-13.076-4.663C197.334,405.738,196.595,405.472,195.884,405.15z
				 M334.914,425.178c-31.893-5.213-53.355-24.141-60.118-30.865c-1.25,2.695-2.401,5.446-3.434,8.23
				c-0.9,2.412-1.712,4.857-2.44,7.33c3.973,2.512,7.98,4.929,12.031,7.213c8.925,5.029,18.094,9.392,27.703,12.62
				c13.971,4.69,28.964,6.924,43.54,4.763c5.613-0.828,11.192-2.329,16.138-5.118c6.852-3.862,11.992-9.925,15.671-16.927
				C374.114,420.282,357.565,428.879,334.914,425.178z M314.758,381.315c1.128,0.478,2.267,0.945,3.412,1.395
				c3.801,1.489,7.763,2.756,11.787,3.579c3.406-8.336,6.363-16.855,8.858-25.502C338.448,361.642,329.707,381.759,314.758,381.315z
				 M313.548,360.182c-3.32,5.349-6.639,10.698-9.959,16.047l2.36,1.094c0.833-0.741,1.576-1.658,2.22-2.534
				c2.132-2.9,4.265-5.799,6.397-8.699c1.354-1.841,2.743-3.76,3.202-5.999c0.493-2.408-0.148-4.887-0.785-7.26
				c-0.808-3.011-1.617-6.023-2.425-9.034c-0.293-1.093-0.584-2.273-0.184-3.331c0.374-0.991,1.277-1.669,2.136-2.29
				c3.892-2.815,7.784-5.63,11.676-8.444c0.863-0.625,1.765-1.294,2.195-2.269c0.428-0.969,0.32-2.081,0.196-3.133
				c-0.953-8.061-2.401-16.063-3.855-24.424c0.41,8.526,0.82,17.051,1.23,25.577c0.036,0.756,0.068,1.543-0.232,2.238
				c-0.378,0.879-1.215,1.458-2.018,1.979c-3.684,2.387-7.525,4.532-11.49,6.415c-0.524,0.249-1.073,0.512-1.411,0.982
				c-0.358,0.498-0.42,1.146-0.442,1.759c-0.181,5.027,1.475,9.911,2.462,14.844c0.215,1.076,0.4,2.186,0.204,3.266
				C314.813,358.132,314.175,359.173,313.548,360.182z M238.235,309.098c4.89-5.834,9.779-11.668,14.669-17.503
				c-5.641,4.893-11.397,10.145-17.051,15.505c-0.513,0.486-1.045,1.005-1.246,1.682c-0.231,0.779,0.02,1.61,0.27,2.383l1.498,4.637
				c0.419,1.296,0.842,2.62,0.831,3.981c-0.02,2.439-1.407,4.615-2.257,6.912l0.95,0.22c1.016-1.425,2.032-2.85,3.048-4.276
				c0.347-0.486,0.701-0.988,0.842-1.569c0.193-0.796-0.038-1.627-0.268-2.413c-0.645-2.206-1.291-4.413-1.936-6.619
				c-0.141-0.48-0.282-0.982-0.196-1.475C237.487,310.002,237.868,309.536,238.235,309.098z"/>
			<path style="fill:#F8A3A8;" d="M293.429,270.254c-6.174,1.639-12.698,1.406-19.044,0.656c-0.956-0.117-1.917-0.239-2.873-0.389
				c-0.495,2.64-1.061,5.291-2.001,7.78c-0.356,0.939-0.761,1.856-1.234,2.734c8.08,0.611,16.405-0.233,23.735-3.679
				c7.03-3.296,13.037-9.192,15.544-16.488C304.316,265.598,299.009,268.776,293.429,270.254z M337.109,235.764
				c-0.6-1.367-1.901-2.351-3.331-2.781c-1.429-0.43-2.973-0.351-4.427-0.012c-2.729,0.637-5.369,2.362-6.336,4.992
				c0.063,0.074,0.497,0.493,0.937,0.527c0.44,0.034,0.854-0.193,1.231-0.423c1.084-0.659,2.128-1.4,3.298-1.891
				c1.17-0.491,2.512-0.714,3.709-0.293c1.026,0.36,1.834,1.145,2.704,1.796c0.452,0.338,1.005,0.659,1.552,0.518
				c0.464-0.12,0.796-0.565,0.884-1.036C337.421,236.691,337.301,236.202,337.109,235.764z"/>
			<path d="M263.158,212.495c-0.612-0.318-1.361-0.215-2.011,0.017c-2.205,0.788-3.778,3.082-3.719,5.423
				c0.011,0.442,0.076,0.888,0.254,1.293c0.288,0.659,0.879,1.179,1.57,1.38c0.691,0.202,1.468,0.082,2.066-0.319
				c1.456-0.976,2.931-3.015,2.965-5.314C264.296,214.018,264.007,212.936,263.158,212.495z M293.496,216.909
				c-0.624-0.294-1.369-0.161-2.009,0.096c-2.173,0.874-3.654,3.228-3.503,5.565c0.029,0.441,0.111,0.884,0.304,1.282
				c0.314,0.647,0.925,1.143,1.623,1.318c0.698,0.174,1.47,0.024,2.052-0.4c1.416-1.032,2.81-3.128,2.754-5.427
				C294.694,218.387,294.362,217.316,293.496,216.909z"/>
			<path style="fill:#3F2532;" d="M268.468,198.865c-1.241-0.605-2.637-0.829-4.016-0.889c-1.425-0.062-2.857,0.043-4.257,0.313
				c-0.931,0.18-1.872,0.443-2.638,1.001c-0.766,0.559-1.335,1.464-1.273,2.411c0.013,0.202,0.06,0.413,0.195,0.563
				c0.212,0.235,0.57,0.254,0.886,0.229c1.233-0.096,2.396-0.595,3.605-0.851c2.36-0.499,4.909-0.031,6.938,1.274
				c1.029,0.662,2.097,1.573,3.302,1.365c0.323-0.594,0.339-1.643,0.04-2.487C270.789,200.492,269.709,199.47,268.468,198.865z
				 M302.808,209.147c-0.1-2.618-2.43-4.649-4.876-5.587c-3.168-1.216-6.831-1.125-9.903,0.318
				c-0.538,0.253-1.074,0.559-1.431,1.034c-0.357,0.475-0.496,1.157-0.198,1.671c0.298,0.514,1.103,0.704,1.301,0.46
				c3.012-0.806,6.399-1.097,9.097,0.466c1.281,0.742,2.308,1.848,3.509,2.713c0.569,0.41,1.346,0.769,1.937,0.391
				C302.707,210.318,302.829,209.696,302.808,209.147z"/>
			<path d="M260.913,396.186c-1.133-0.323-2.363-0.609-3.87-0.901c-1.688-0.322-3.419-0.58-5.093-0.83
				c-1.657-0.247-3.37-0.503-5.038-0.82c-5.998-1.137-11.797-3.129-17.236-5.921c-1.454-0.745-3.09-1.661-4.094-3.112
				c-0.772-1.113-1.01-2.529-0.647-3.649c2.336,2.07,5.373,3.748,9.05,4.982c2.157,0.724,4.394,1.265,6.649,1.606
				c0.014,0.002,0.028,0.003,0.042,0.003c0.135,0,0.254-0.099,0.274-0.236c0.023-0.152-0.081-0.294-0.233-0.316
				c-2.223-0.337-4.429-0.87-6.555-1.584c-3.761-1.262-6.842-2.989-9.158-5.131c-0.341-0.315-0.682-0.658-1.04-1.046
				c-1.013-1.098-1.448-2.056-1.329-2.931c0.077-0.578,0.396-1.13,0.99-1.722c0.9,0.921,1.932,1.675,2.752,2.231
				c4.891,3.309,10.564,5.492,16.405,6.314c0.013,0.002,0.026,0.003,0.039,0.003c0.137,0,0.255-0.1,0.275-0.239
				c0.021-0.152-0.084-0.292-0.236-0.314c-5.758-0.81-11.35-2.962-16.171-6.224c-0.856-0.581-1.954-1.372-2.859-2.349
				c-0.376-0.403-0.709-0.832-0.991-1.276c-0.328-0.519-0.469-0.919-0.457-1.294c0.03-0.656,0.523-1.21,1.491-1.689
				c1.698,1.658,3.891,2.745,5.827,3.587c5.33,2.335,10.956,3.933,16.722,4.75c0.013,0.002,0.026,0.003,0.039,0.003
				c0.136,0,0.255-0.1,0.275-0.239c0.021-0.152-0.084-0.293-0.236-0.314c-5.716-0.809-11.293-2.394-16.578-4.709
				c-1.943-0.845-4.153-1.935-5.805-3.609c-0.122-0.122-0.239-0.25-0.361-0.383c-0.434-0.49-0.819-1.302-0.714-1.908
				c0.044-0.254,0.17-0.435,0.387-0.555c0.269-0.152,0.627-0.135,1.003-0.104c3.489,0.277,7.031,0.804,10.456,1.314
				c5.911,0.879,12.023,1.79,18.058,1.444c0.564-0.023,1.115-0.071,1.626-0.118c0.153-0.014,0.265-0.15,0.251-0.302
				c-0.015-0.153-0.149-0.26-0.302-0.251c-0.504,0.047-1.046,0.093-1.602,0.116c-5.982,0.342-12.065-0.562-17.948-1.438
				c-3.435-0.511-6.987-1.039-10.493-1.318c-0.446-0.037-0.915-0.056-1.319,0.173c-0.362,0.199-0.592,0.526-0.664,0.946
				c-0.141,0.815,0.34,1.8,0.858,2.384c0.037,0.04,0.075,0.078,0.111,0.118c-1.046,0.559-1.6,1.256-1.638,2.082
				c-0.021,0.644,0.3,1.229,0.543,1.613c0.253,0.398,0.551,0.781,0.875,1.148c-0.484,0.476-1.041,1.163-1.161,2.056
				c-0.143,1.049,0.339,2.155,1.472,3.382c0.322,0.349,0.629,0.657,0.936,0.947c-0.524,1.315-0.286,3.037,0.634,4.363
				c1.077,1.556,2.783,2.514,4.297,3.29c5.486,2.816,11.336,4.825,17.386,5.972c1.68,0.319,3.398,0.576,5.06,0.824
				c1.668,0.249,3.394,0.507,5.07,0.827c1.49,0.288,2.704,0.57,3.823,0.889c4.451,1.256,8.044,3.333,10.392,6.007
				c0.055,0.062,0.132,0.094,0.209,0.094c0.065,0,0.131-0.023,0.184-0.069c0.115-0.102,0.127-0.277,0.025-0.392
				C269.152,399.606,265.466,397.471,260.913,396.186z M185.418,280.852c-0.886-1.455-2.053-2.845-3.468-4.129
				c-0.423-0.385-0.881-0.772-1.361-1.147c-0.5-0.391-1.099-0.832-1.749-1.142c-0.41-0.202-0.831-0.344-1.249-0.424
				c-0.151-0.029-0.296,0.07-0.324,0.221c-0.029,0.151,0.07,0.296,0.221,0.325c0.369,0.07,0.742,0.196,1.11,0.378
				c0.604,0.288,1.173,0.708,1.649,1.079c0.469,0.367,0.916,0.744,1.33,1.121c1.376,1.249,2.509,2.597,3.367,4.007
				c0.553,0.908,0.995,1.843,1.314,2.779c0.393,1.154,0.802,2.787-0.179,3.634c-1.103,0.95-2.874,0.084-3.391-0.205
				c-0.045-0.025-0.085-0.05-0.136-0.082c-0.495-0.282-0.978-0.61-1.439-0.978c-0.613-0.479-1.231-1.044-1.838-1.68
				c-0.564-0.586-1.111-1.214-1.627-1.869c-0.667-0.844-1.273-1.729-1.801-2.63c-0.077-0.132-0.247-0.177-0.38-0.099
				c-0.132,0.078-0.177,0.248-0.099,0.38c0.541,0.923,1.162,1.829,1.844,2.693c0.527,0.669,1.087,1.312,1.662,1.909
				c0.625,0.654,1.263,1.237,1.895,1.731c0.419,0.334,0.859,0.632,1.303,0.896c0,0.038,0.007,0.077,0.025,0.115
				c0.973,2.105,1.383,4.439,1.187,6.751c-0.07,0.836-0.39,2.838-1.839,3.393c-0.612,0.233-1.309,0.169-2.073-0.193
				c-0.522-0.244-1.071-0.627-1.63-1.136c-0.729-0.675-1.421-1.434-2.059-2.256c-1.048-1.351-1.994-2.937-2.813-4.716
				c-0.301-0.64-0.578-1.287-0.827-1.925c-0.031-0.078-0.063-0.156-0.089-0.234c-0.048-0.145-0.205-0.224-0.351-0.176
				c-0.146,0.049-0.224,0.206-0.176,0.351c0.03,0.089,0.065,0.178,0.099,0.264c0.252,0.647,0.535,1.305,0.84,1.954
				c0.836,1.815,1.804,3.438,2.878,4.822c0.656,0.846,1.369,1.627,2.122,2.324c0.557,0.507,1.107,0.894,1.64,1.162
				c0.408,0.98,0.632,2.057,0.642,3.12c0.007,0.854-0.17,1.438-0.54,1.784c-0.393,0.367-0.952,0.458-1.665,0.272
				c-0.575-0.145-1.094-0.422-1.427-0.627c-1.418-0.885-2.718-1.94-3.864-3.136c-1.271-1.326-2.344-2.801-3.193-4.39
				c-0.051-0.091-0.1-0.185-0.147-0.277l-0.052-0.099c-0.293-0.586-0.511-1.113-0.667-1.61c-0.046-0.147-0.202-0.228-0.348-0.182
				c-0.146,0.046-0.228,0.202-0.182,0.348c0.165,0.526,0.394,1.079,0.702,1.697l0.053,0.102c0.051,0.098,0.102,0.198,0.154,0.289
				c0.87,1.628,1.973,3.144,3.279,4.507c1.178,1.229,2.514,2.313,3.972,3.224c0.367,0.227,0.941,0.531,1.582,0.693
				c0.282,0.074,0.549,0.111,0.801,0.111c0.547,0,1.016-0.174,1.382-0.515c0.49-0.459,0.724-1.177,0.716-2.195
				c-0.009-0.957-0.187-1.921-0.501-2.829c0.337,0.106,0.666,0.165,0.982,0.165c0.332,0,0.651-0.058,0.957-0.175
				c1.682-0.643,2.097-2.698,2.195-3.865c0.189-2.215-0.164-4.448-1.011-6.499c0.696,0.329,1.368,0.504,1.97,0.504
				c0.643,0,1.208-0.188,1.646-0.565c1.236-1.067,0.788-2.927,0.342-4.234C186.451,282.767,185.992,281.794,185.418,280.852z
				 M348.637,386.129c-0.039-0.149-0.191-0.239-0.339-0.198c-5.353,1.404-11.394,1.451-17.958,0.148
				c3.907-9.602,7.265-19.571,9.978-29.639c0.04-0.148-0.048-0.301-0.196-0.34c-0.148-0.04-0.301,0.047-0.341,0.196
				c-2.715,10.08-6.079,20.061-9.994,29.671c-3.645-0.76-7.414-1.91-11.514-3.516c-4.13-1.62-8.226-3.53-12.188-5.377
				c-4.931-2.299-10.029-4.676-15.242-6.518c-0.298-0.11-0.601-0.214-0.904-0.319l-0.063-0.022
				c-0.145-0.049-0.303,0.027-0.353,0.172s0.027,0.303,0.172,0.353l0.063,0.022c0.3,0.103,0.599,0.207,0.897,0.316
				c5.191,1.834,10.277,4.205,15.196,6.499c3.969,1.851,8.073,3.764,12.22,5.391c4.215,1.651,8.085,2.826,11.832,3.593
				c3.314,0.678,6.498,1.018,9.534,1.018c3.171,0,6.18-0.371,9.003-1.111C348.587,386.43,348.675,386.278,348.637,386.129z
				 M294.46,183.771c-0.835,4.283-0.232,8.768,1.716,12.674c2.268,4.549,6.157,7.989,9.918,11.315
				c3.275,2.897,6.662,5.893,8.962,9.607c2.778,4.485,3.882,10.042,3.029,15.247c-0.025,0.151,0.078,0.294,0.229,0.319
				c0.015,0.002,0.03,0.004,0.045,0.004c0.134,0,0.251-0.097,0.274-0.233c0.874-5.335-0.258-11.032-3.106-15.629
				c-2.343-3.784-5.76-6.807-9.066-9.731c-3.721-3.291-7.568-6.695-9.789-11.147c-1.949-3.909-2.515-8.415-1.594-12.688
				c0.003-0.014,0-0.028,0.001-0.042c0.019-0.007,0.038-0.015,0.057-0.023c0.144-0.053,0.218-0.212,0.165-0.357
				c-0.053-0.144-0.212-0.217-0.357-0.165c-0.123,0.045-0.244,0.095-0.365,0.143c-0.057-0.002-0.114,0.007-0.165,0.041l-0.044,0.033
				c-0.001,0-0.007,0.005-0.01,0.007c-0.004,0.003-0.008,0.005-0.012,0.008c-0.004,0.003-0.005,0.004-0.009,0.007
				c-6.276,2.548-11.699,7.429-14.882,13.399c-0.072,0.135-0.021,0.304,0.115,0.376c0.042,0.022,0.087,0.033,0.13,0.033
				c0.099,0,0.195-0.053,0.246-0.147c2.787-5.229,7.328-9.602,12.662-12.264c-4.438,3.946-7.215,9.62-7.528,15.576
				c-0.008,0.153,0.11,0.284,0.263,0.292c0.005,0,0.01,0,0.015,0c0.147,0,0.27-0.115,0.277-0.263
				C285.971,193.813,289.351,187.553,294.46,183.771z M266.837,235.037c0.055,0.073,0.138,0.111,0.223,0.111
				c0.058,0,0.116-0.018,0.166-0.056c0.123-0.092,0.148-0.266,0.056-0.389l-2.118-2.824c-0.296-0.395-0.541-0.753-0.538-1.134
				c0.004-0.546,0.529-1.012,0.951-1.385c2.276-2.015,4.164-4.392,5.612-7.064c0.073-0.135,0.023-0.304-0.112-0.377
				c-0.135-0.074-0.303-0.023-0.377,0.112c-1.417,2.615-3.265,4.941-5.492,6.913c-0.478,0.423-1.133,1.003-1.139,1.797
				c-0.004,0.6,0.373,1.104,0.649,1.471L266.837,235.037z M277.845,244.051c-0.136-0.072-0.304-0.018-0.375,0.117
				c-0.598,1.141-1.776,2.063-3.233,2.53c-1.17,0.375-2.529,0.492-4.279,0.367c-2.311-0.165-4.147-0.663-5.612-1.521
				c-1.791-1.05-3.03-2.721-3.312-4.471c-0.025-0.151-0.167-0.256-0.319-0.23c-0.152,0.024-0.255,0.167-0.23,0.318
				c0.309,1.912,1.647,3.729,3.58,4.862c1.54,0.903,3.455,1.425,5.853,1.596c0.461,0.033,0.896,0.05,1.31,0.05
				c1.221,0,2.252-0.145,3.178-0.442c1.594-0.511,2.89-1.532,3.555-2.802C278.034,244.29,277.981,244.122,277.845,244.051z"/>
			<g>
				
					<ellipse transform="matrix(0.9687 -0.2482 0.2482 0.9687 -49.2574 82.6422)" style="fill:#F8A3A8;" cx="303.152" cy="236.689" rx="10.704" ry="10.704"/>
				<path style="fill:#F8A3A8;" d="M248.189,241.118c5.911,0,10.704-4.792,10.704-10.704c0-5.912-4.792-10.704-10.704-10.704
					c-0.166,0-0.327,0.017-0.492,0.025c-0.807,3.397-1.595,6.799-2.382,10.202c-0.772,3.329-1.539,6.692-1.812,10.09
					C244.92,240.719,246.506,241.118,248.189,241.118z"/>
			</g>
			<g>
				<path style="fill:#EE5952;" d="M301.47,240.492c0.069,0,0.138-0.025,0.191-0.076c2.175-2.064,4.589-3.879,7.176-5.397
					c0.132-0.078,0.177-0.248,0.099-0.38c-0.078-0.132-0.247-0.177-0.38-0.099c-2.624,1.539-5.072,3.38-7.277,5.473
					c-0.111,0.106-0.116,0.282-0.01,0.393C301.323,240.463,301.397,240.492,301.47,240.492z"/>
				<path style="fill:#EE5952;" d="M305.29,232.893c-0.068-0.138-0.235-0.194-0.372-0.127c-3.07,1.511-5.9,3.456-8.41,5.784
					c-0.113,0.104-0.119,0.28-0.015,0.393c0.055,0.059,0.129,0.089,0.204,0.089c0.068,0,0.135-0.024,0.189-0.074
					c2.471-2.291,5.256-4.206,8.278-5.693C305.301,233.197,305.357,233.031,305.29,232.893z"/>
				<path style="fill:#EE5952;" d="M248.478,234.013c0.065,0,0.13-0.023,0.183-0.068c1.924-1.676,4.043-3.131,6.299-4.323
					c0.136-0.072,0.188-0.24,0.116-0.376c-0.071-0.135-0.24-0.187-0.376-0.116c-2.293,1.213-4.448,2.691-6.404,4.395
					c-0.116,0.101-0.128,0.276-0.027,0.392C248.324,233.981,248.401,234.013,248.478,234.013z"/>
				<path style="fill:#EE5952;" d="M252.601,226.717c-0.069-0.137-0.234-0.192-0.373-0.124c-2.645,1.325-5.091,2.997-7.288,4.972
					c-0.071,0.313-0.139,0.628-0.209,0.941c2.306-2.174,4.911-3.997,7.746-5.416C252.615,227.021,252.67,226.855,252.601,226.717z"
					/>
			</g>
			<path style="fill:#EE5952;" d="M331.603,328.996c-0.455-0.074-0.882,0.238-0.954,0.692c-1.782,11.2-5.058,21.396-9.739,30.305
				c-1.495,2.844-3.252,5.683-5.968,7.185c-2.772,1.534-6.585,1.546-10.201,0.03c-0.424-0.177-0.913,0.022-1.091,0.447
				c-0.178,0.425,0.022,0.913,0.447,1.091c1.997,0.837,4.06,1.255,6.023,1.255c2.048,0,3.988-0.455,5.63-1.364
				c3.1-1.714,5.021-4.795,6.636-7.869c4.766-9.07,8.1-19.438,9.91-30.818C332.368,329.496,332.058,329.068,331.603,328.996z
				 M297.744,363.238c-2.68-1.46-4.65-4.568-5.142-8.113c-0.413-2.98,0.078-6.288,1.504-10.114
				c3.438-9.225,10.221-16.697,17.038-23.397c0.328-0.322,0.333-0.85,0.01-1.179c-0.323-0.329-0.851-0.333-1.179-0.01
				c-6.954,6.835-13.879,14.473-17.432,24.004c-1.525,4.09-2.046,7.664-1.593,10.924c0.572,4.119,2.813,7.614,5.996,9.348
				c0.127,0.069,0.264,0.102,0.398,0.102c0.296,0,0.582-0.157,0.733-0.435C298.297,363.965,298.148,363.459,297.744,363.238z
				 M325.645,312.98c-0.219,0.573,0.068,1.216,0.641,1.435c0.131,0.05,0.265,0.074,0.397,0.074c0.447,0,0.869-0.271,1.038-0.714
				c0.123-0.321,3.021-7.98,3.439-17.047c0.524-11.385-3.177-19.792-10.719-24.463c0.078,0.956,0.165,1.91,0.261,2.863
				C335.607,286.292,325.753,312.699,325.645,312.98z M235.524,317.142c-1.117-0.168-2.268-0.086-3.338,0.284
				c-2.881,0.998-4.938,4-4.827,7.047l12.925,4.047c1.829-2.44,1.851-6.079,0.054-8.542c-0.689-0.944-1.624-1.683-2.677-2.183
				c2.469-6.351,15.96-39.096,32.878-42.805c0.203-0.781,0.386-1.569,0.553-2.361C252.179,275.604,237.98,310.698,235.524,317.142z"
				/>
			<path d="M232.997,320.85c-1.739,0.621-2.951,2.476-2.822,4.318l-0.009,0.325l7.581,2.066c1.164-1.434,1.237-3.649,0.17-5.156
				C236.849,320.896,234.735,320.228,232.997,320.85z M330.625,316.299c-0.854-1.154-1.931-2.22-3.298-2.657
				c-0.819-0.262-1.695-0.283-2.555-0.255c-5.993,0.191-11.881,2.707-16.162,6.905c0,0.683,1.781,1.688,2.641,2.674
				c0.203,0.233,0.464,0.484,0.77,0.443c0.181-0.024,0.331-0.148,0.47-0.267c2.015-1.729,4.024-3.553,6.469-4.589
				c2.445-1.036,5.474-1.139,7.587,0.47c1.436,1.094,2.265,2.831,2.637,4.598c0.372,1.766,0.336,3.589,0.346,5.394
				c0.002,0.283,0.027,0.61,0.258,0.772c0.115,0.081,0.26,0.102,0.399,0.122c0.843,0.118,1.588,0.222,2.53,0.354
				C333.661,330.396,333.54,320.237,330.625,316.299z M299.799,363.372c-0.161-0.065-0.339-0.074-0.512-0.094
				c-0.312-0.035-0.62-0.109-0.914-0.219c-0.236-0.088-0.517-0.195-0.721-0.048c-0.131,0.094-0.173,0.253-0.25,0.385
				c-0.065,0.112-0.153,0.188-0.232,0.289c-0.223,0.283-0.385,0.596-0.642,0.855c-0.049,0.049-0.102,0.101-0.117,0.168
				c-0.022,0.097,0.041,0.192,0.105,0.267c0.342,0.402,0.821,0.668,1.167,1.066c0.166,0.191,0.335,0.43,0.587,0.445
				c0.22,0.013,0.406-0.154,0.554-0.317c0.561-0.619,0.991-1.357,1.253-2.15c0.029-0.088,0.056-0.179,0.047-0.272
				C300.107,363.574,299.961,363.437,299.799,363.372z M303.775,365.897c-0.168-0.189-0.34-0.425-0.593-0.437
				c-0.22-0.01-0.404,0.159-0.55,0.324c-0.553,0.626-0.974,1.369-1.225,2.166c-0.028,0.088-0.054,0.18-0.044,0.272
				c0.02,0.173,0.167,0.308,0.329,0.371c0.162,0.063,0.34,0.07,0.513,0.087c0.312,0.032,0.621,0.102,0.917,0.208
				c0.237,0.085,0.519,0.189,0.722,0.039c0.129-0.095,0.169-0.255,0.245-0.388c0.064-0.113,0.151-0.19,0.229-0.291
				c0.219-0.285,0.377-0.601,0.631-0.863c0.048-0.05,0.101-0.102,0.115-0.17c0.021-0.097-0.043-0.191-0.108-0.266
				C304.609,366.551,304.126,366.291,303.775,365.897z"/>
		</g>
	</g>
</g>
</svg>
